<?xml version="1.0"?><svg xmlns="http://www.w3.org/2000/svg" xmlns:xlink= "http://www.w3.org/1999/xlink" style="background: white;" width="1500" height="185"> <g style="color: black; font-size: 13px; font-family: sans-serif; transform: translate(18px, 25px);"><g><circle r="3" cx="-6" cy="-5" style="fill: #B6509E" /><text>Borrow APR, variable</text></g><g style="transform: translateX(150px);"><circle r="3" cx="-6" cy="-5" style="fill: rgb(231, 198, 223)" /><text>Borrow APR, stable</text></g><g style="transform: translateX(290px);"><circle r="3" cx="-6" cy="-5" style="fill: rgb(0, 98, 210)" /><text>Utilization Rate</text></g></g><g class="visx-group" transform="translate(40, 50)"><g class="visx-group visx-rows" transform="translate(0, 0)"><line class="visx-line" x1="0" y1="115" x2="1450" y2="115" fill="transparent" shape-rendering="crispEdges" stroke="#000" stroke-width="1" stroke-dasharray="3,3" pointer-events="none"></line><line class="visx-line" x1="0" y1="62.72727272727272" x2="1450" y2="62.72727272727272" fill="transparent" shape-rendering="crispEdges" stroke="#000" stroke-width="1" stroke-dasharray="3,3" pointer-events="none"></line><line class="visx-line" x1="0" y1="10.454545454545459" x2="1450" y2="10.454545454545459" fill="transparent" shape-rendering="crispEdges" stroke="#000" stroke-width="1" stroke-dasharray="3,3" pointer-events="none"></line></g><path class="visx-linepath" d="M0,10.454545454545459C2.4166666666666665,10.454545454545459,4.833333333333334,10.454545454545459,7.25,10.454545454545459C9.666666666666666,10.454545454545459,12.083333333333334,10.454545454545459,14.5,10.454545454545459C16.916666666666668,10.454545454545459,19.333333333333332,10.454545454545459,21.75,10.454545454545459C24.166666666666668,10.454545454545459,26.583333333333332,10.454545454545459,29,10.454545454545459C31.416666666666668,10.454545454545459,33.833333333333336,10.454545454545459,36.25,10.454545454545459C38.666666666666664,10.454545454545459,41.083333333333336,10.454545454545459,43.5,10.454545454545459C45.91666666666667,10.454545454545459,48.333333333333336,10.454545454545459,50.75000000000001,10.454545454545459C53.16666666666667,10.454545454545459,55.583333333333336,10.454545454545459,58,10.454545454545459C60.416666666666664,10.454545454545459,62.833333333333336,10.454545454545459,65.25,10.454545454545459C67.66666666666667,10.454545454545459,70.08333333333333,10.454545454545459,72.5,10.454545454545459C74.91666666666667,10.454545454545459,77.33333333333333,10.454545454545459,79.75,10.454545454545459C82.16666666666667,10.454545454545459,84.58333333333333,10.454545454545459,87,10.454545454545459C89.41666666666667,10.454545454545459,91.83333333333333,10.454545454545459,94.25,10.454545454545459C96.66666666666667,10.454545454545459,99.08333333333334,10.454545454545459,101.50000000000001,10.454545454545459C103.91666666666667,10.454545454545459,106.33333333333334,10.454545454545459,108.75,10.454545454545459C111.16666666666667,10.454545454545459,113.58333333333333,10.454545454545459,116,10.454545454545459C118.41666666666667,10.454545454545459,120.83333333333334,10.454545454545459,123.25000000000001,10.454545454545459C125.66666666666667,10.454545454545459,128.08333333333334,10.454545454545459,130.5,10.454545454545459C132.91666666666666,10.454545454545459,135.33333333333334,10.454545454545459,137.75,10.454545454545459C140.16666666666666,10.454545454545459,142.58333333333334,10.454545454545459,145,10.454545454545459C147.41666666666666,10.454545454545459,149.83333333333334,10.454545454545459,152.25,10.454545454545459C154.66666666666666,10.454545454545459,157.08333333333334,10.454545454545459,159.5,10.454545454545459C161.91666666666666,10.454545454545459,164.33333333333334,10.454545454545459,166.75,10.454545454545459C169.16666666666666,10.454545454545459,171.58333333333334,10.454545454545459,174,10.454545454545459C176.41666666666666,10.454545454545459,178.83333333333334,10.454545454545459,181.25,10.454545454545459C183.66666666666666,10.454545454545459,186.08333333333334,10.454545454545459,188.5,10.454545454545459C190.91666666666666,10.454545454545459,193.33333333333334,10.454545454545459,195.75,10.454545454545459C198.16666666666669,10.454545454545459,200.58333333333334,10.454545454545459,203.00000000000003,10.454545454545459C205.41666666666669,10.454545454545459,207.83333333333331,10.454545454545459,210.24999999999997,10.454545454545459C212.66666666666666,10.454545454545459,215.08333333333331,10.454545454545459,217.5,10.454545454545459C219.91666666666666,10.454545454545459,222.33333333333334,10.454545454545459,224.75,10.454545454545459C227.16666666666666,10.454545454545459,229.58333333333334,10.454545454545459,232,10.454545454545459C234.41666666666666,10.454545454545459,236.83333333333334,10.454545454545459,239.25,10.454545454545459C241.66666666666669,10.454545454545459,244.08333333333334,10.454545454545459,246.50000000000003,10.454545454545459C248.91666666666669,10.454545454545459,251.33333333333331,10.454545454545459,253.74999999999997,10.454545454545459C256.16666666666663,10.454545454545459,258.5833333333333,10.454545454545459,261,10.454545454545459C263.4166666666667,10.454545454545459,265.8333333333333,10.454545454545459,268.25,10.454545454545459C270.6666666666667,10.454545454545459,273.0833333333333,10.454545454545459,275.5,10.454545454545459C277.9166666666667,10.454545454545459,280.3333333333333,10.454545454545459,282.75,10.454545454545459C285.1666666666667,10.454545454545459,287.5833333333333,10.454545454545459,290,10.454545454545459C292.4166666666667,10.454545454545459,294.8333333333333,10.454545454545459,297.25,10.454545454545459C299.6666666666667,10.454545454545459,302.0833333333333,10.454545454545459,304.5,10.454545454545459C306.9166666666667,10.454545454545459,309.3333333333333,10.454545454545459,311.75,10.454545454545459C314.1666666666667,10.454545454545459,316.5833333333333,10.454545454545459,319,10.454545454545459C321.4166666666667,10.454545454545459,323.8333333333333,10.454545454545459,326.25,10.454545454545459C328.6666666666667,10.454545454545459,331.0833333333333,10.454545454545459,333.5,10.454545454545459C335.9166666666667,10.454545454545459,338.3333333333333,10.454545454545459,340.75,10.454545454545459C343.1666666666667,10.454545454545459,345.5833333333333,10.454545454545459,348,10.454545454545459C350.4166666666667,10.454545454545459,352.8333333333333,10.454545454545459,355.25,10.454545454545459C357.6666666666667,10.454545454545459,360.0833333333333,10.454545454545459,362.5,10.454545454545459C364.9166666666667,10.454545454545459,367.3333333333333,10.454545454545459,369.75,10.454545454545459C372.1666666666667,10.454545454545459,374.5833333333333,10.454545454545459,377,10.454545454545459C379.4166666666667,10.454545454545459,381.8333333333333,10.454545454545459,384.25,10.454545454545459C386.6666666666667,10.454545454545459,389.0833333333333,10.454545454545459,391.5,10.454545454545459C393.9166666666667,10.454545454545459,396.33333333333337,10.454545454545459,398.75000000000006,10.454545454545459C401.16666666666674,10.454545454545459,403.58333333333337,10.454545454545459,406.00000000000006,10.454545454545459C408.4166666666667,10.454545454545459,410.8333333333333,10.454545454545459,413.24999999999994,10.454545454545459C415.66666666666663,10.454545454545459,418.08333333333326,10.454545454545459,420.49999999999994,10.454545454545459C422.91666666666663,10.454545454545459,425.3333333333333,10.454545454545459,427.75,10.454545454545459C430.1666666666667,10.454545454545459,432.5833333333333,10.454545454545459,435,10.454545454545459C437.4166666666667,10.454545454545459,439.8333333333333,10.454545454545459,442.25,10.454545454545459C444.6666666666667,10.454545454545459,447.0833333333333,10.454545454545459,449.5,10.454545454545459C451.9166666666667,10.454545454545459,454.3333333333333,10.454545454545459,456.75,10.454545454545459C459.1666666666667,10.454545454545459,461.5833333333333,10.454545454545459,464,10.454545454545459C466.4166666666667,10.454545454545459,468.8333333333333,10.454545454545459,471.25,10.454545454545459C473.6666666666667,10.454545454545459,476.0833333333333,10.454545454545459,478.5,10.454545454545459C480.9166666666667,10.454545454545459,483.33333333333337,10.454545454545459,485.75000000000006,10.454545454545459C488.16666666666674,10.454545454545459,490.58333333333337,10.454545454545459,493.00000000000006,10.454545454545459C495.4166666666667,10.454545454545459,497.8333333333333,10.454545454545459,500.24999999999994,10.454545454545459C502.66666666666663,10.454545454545459,505.08333333333326,10.454545454545459,507.49999999999994,10.454545454545459C509.91666666666663,10.454545454545459,512.3333333333333,10.454545454545459,514.75,10.454545454545459C517.1666666666666,10.454545454545459,519.5833333333334,10.454545454545459,522,10.454545454545459C524.4166666666666,10.454545454545459,526.8333333333334,10.454545454545459,529.25,10.454545454545459C531.6666666666666,10.454545454545459,534.0833333333334,10.454545454545459,536.5,10.454545454545459C538.9166666666666,10.454545454545459,541.3333333333334,10.454545454545459,543.75,10.454545454545459C546.1666666666666,10.454545454545459,548.5833333333334,10.454545454545459,551,10.454545454545459C553.4166666666666,10.454545454545459,555.8333333333334,10.454545454545459,558.25,10.454545454545459C560.6666666666666,10.454545454545459,563.0833333333334,10.454545454545459,565.5,10.454545454545459C567.9166666666666,10.454545454545459,570.3333333333334,10.454545454545459,572.75,10.454545454545459C575.1666666666666,10.454545454545459,577.5833333333334,10.454545454545459,580,10.454545454545459C582.4166666666666,10.454545454545459,584.8333333333334,10.454545454545459,587.25,10.454545454545459C589.6666666666666,10.454545454545459,592.0833333333334,10.454545454545459,594.5,10.454545454545459C596.9166666666666,10.454545454545459,599.3333333333334,10.454545454545459,601.75,10.454545454545459C604.1666666666666,10.454545454545459,606.5833333333334,10.454545454545459,609,10.454545454545459C611.4166666666666,10.454545454545459,613.8333333333334,10.454545454545459,616.25,10.454545454545459C618.6666666666666,10.454545454545459,621.0833333333334,10.454545454545459,623.5,10.454545454545459C625.9166666666666,10.454545454545459,628.3333333333334,10.454545454545459,630.75,10.454545454545459C633.1666666666666,10.454545454545459,635.5833333333334,10.454545454545459,638,10.454545454545459C640.4166666666666,10.454545454545459,642.8333333333334,10.454545454545459,645.25,10.454545454545459C647.6666666666666,10.454545454545459,650.0833333333334,10.454545454545459,652.5,10.454545454545459C654.9166666666666,10.454545454545459,657.3333333333334,10.454545454545459,659.75,10.454545454545459C662.1666666666666,10.454545454545459,664.5833333333334,10.454545454545459,667,10.454545454545459C669.4166666666666,10.454545454545459,671.8333333333334,10.454545454545459,674.25,10.454545454545459C676.6666666666666,10.454545454545459,679.0833333333334,10.454545454545459,681.5,10.454545454545459C683.9166666666666,10.454545454545459,686.3333333333334,10.454545454545459,688.75,10.454545454545459C691.1666666666666,10.454545454545459,693.5833333333334,10.454545454545459,696,10.454545454545459C698.4166666666666,10.454545454545459,700.8333333333334,10.454545454545459,703.25,10.454545454545459C705.6666666666666,10.454545454545459,708.0833333333334,10.454545454545459,710.5,10.454545454545459C712.9166666666666,10.454545454545459,715.3333333333334,10.454545454545459,717.75,10.454545454545459C720.1666666666666,10.454545454545459,722.5833333333334,10.454545454545459,725,10.454545454545459C727.4166666666666,10.454545454545459,729.8333333333334,10.454545454545459,732.25,10.454545454545459C734.6666666666666,10.454545454545459,737.0833333333334,10.454545454545459,739.5,10.454545454545459C741.9166666666666,10.454545454545459,744.3333333333334,10.454545454545459,746.75,10.454545454545459C749.1666666666666,10.454545454545459,751.5833333333334,10.454545454545459,754,10.454545454545459C756.4166666666666,10.454545454545459,758.8333333333334,10.454545454545459,761.25,10.454545454545459C763.6666666666666,10.454545454545459,766.0833333333334,10.454545454545459,768.5,10.454545454545459C770.9166666666666,10.454545454545459,773.3333333333334,10.454545454545459,775.75,10.454545454545459C778.1666666666666,10.454545454545459,780.5833333333334,10.454545454545459,783,10.454545454545459C785.4166666666667,10.454545454545459,787.8333333333334,10.454545454545459,790.2500000000001,10.454545454545459C792.6666666666667,10.454545454545459,795.0833333333335,10.454545454545459,797.5000000000001,10.454545454545459C799.9166666666667,10.454545454545459,802.3333333333335,10.454545454545459,804.7500000000001,10.454545454545459C807.1666666666667,10.454545454545459,809.5833333333335,10.454545454545459,812.0000000000001,10.454545454545459C814.4166666666667,10.454545454545459,816.8333333333333,10.454545454545459,819.2499999999999,10.454545454545459C821.6666666666665,10.454545454545459,824.0833333333333,10.454545454545459,826.4999999999999,10.454545454545459C828.9166666666665,10.454545454545459,831.3333333333333,10.454545454545459,833.7499999999999,10.454545454545459C836.1666666666665,10.454545454545459,838.5833333333333,10.454545454545459,840.9999999999999,10.454545454545459C843.4166666666666,10.454545454545459,845.8333333333333,10.454545454545459,848.25,10.454545454545459C850.6666666666666,10.454545454545459,853.0833333333334,10.454545454545459,855.5,10.454545454545459C857.9166666666666,10.454545454545459,860.3333333333334,10.454545454545459,862.75,10.454545454545459C865.1666666666666,10.454545454545459,867.5833333333334,10.454545454545459,870,10.454545454545459C872.4166666666666,10.454545454545459,874.8333333333334,10.454545454545459,877.25,10.454545454545459C879.6666666666666,10.454545454545459,882.0833333333334,10.454545454545459,884.5,10.454545454545459C886.9166666666666,10.454545454545459,889.3333333333334,10.454545454545459,891.75,10.454545454545459C894.1666666666666,10.454545454545459,896.5833333333334,10.454545454545459,899,10.454545454545459C901.4166666666666,10.454545454545459,903.8333333333334,10.454545454545459,906.25,10.454545454545459C908.6666666666666,10.454545454545459,911.0833333333334,10.454545454545459,913.5,10.454545454545459C915.9166666666666,10.454545454545459,918.3333333333334,10.454545454545459,920.75,10.454545454545459C923.1666666666666,10.454545454545459,925.5833333333334,10.454545454545459,928,10.454545454545459C930.4166666666666,10.454545454545459,932.8333333333334,10.454545454545459,935.25,10.454545454545459C937.6666666666666,10.454545454545459,940.0833333333334,10.454545454545459,942.5,10.454545454545459C944.9166666666666,10.454545454545459,947.3333333333334,10.454545454545459,949.75,10.454545454545459C952.1666666666666,10.454545454545459,954.5833333333334,10.454545454545459,957,10.454545454545459C959.4166666666666,10.454545454545459,961.8333333333334,10.454545454545459,964.25,10.454545454545459C966.6666666666667,10.454545454545459,969.0833333333334,10.454545454545459,971.5000000000001,10.454545454545459C973.9166666666667,10.454545454545459,976.3333333333335,10.454545454545459,978.7500000000001,10.454545454545459C981.1666666666667,10.454545454545459,983.5833333333335,10.454545454545459,986.0000000000001,10.454545454545459C988.4166666666667,10.454545454545459,990.8333333333335,10.454545454545459,993.2500000000001,10.454545454545459C995.6666666666667,10.454545454545459,998.0833333333333,10.454545454545459,1000.4999999999999,10.454545454545459C1002.9166666666665,10.454545454545459,1005.3333333333333,10.454545454545459,1007.7499999999999,10.454545454545459C1010.1666666666665,10.454545454545459,1012.5833333333333,10.454545454545459,1014.9999999999999,10.454545454545459C1017.4166666666665,10.454545454545459,1019.8333333333333,10.454545454545459,1022.2499999999999,10.454545454545459C1024.6666666666665,10.454545454545459,1027.0833333333333,10.454545454545459,1029.5,10.454545454545459C1031.9166666666667,10.454545454545459,1034.3333333333333,10.454545454545459,1036.75,10.454545454545459C1039.1666666666667,10.454545454545459,1041.5833333333333,10.454545454545459,1044,10.454545454545459C1046.4166666666667,10.454545454545459,1048.8333333333333,10.454545454545459,1051.25,10.454545454545459C1053.6666666666667,10.454545454545459,1056.0833333333333,10.454545454545459,1058.5,10.454545454545459C1060.9166666666667,10.454545454545459,1063.3333333333333,10.454545454545459,1065.75,10.454545454545459C1068.1666666666667,10.454545454545459,1070.5833333333333,10.454545454545459,1073,10.454545454545459C1075.4166666666667,10.454545454545459,1077.8333333333333,10.454545454545459,1080.25,10.454545454545459C1082.6666666666667,10.454545454545459,1085.0833333333333,10.454545454545459,1087.5,10.454545454545459C1089.9166666666667,10.454545454545459,1092.3333333333333,10.454545454545459,1094.75,10.454545454545459C1097.1666666666667,10.454545454545459,1099.5833333333333,10.454545454545459,1102,10.454545454545459C1104.4166666666667,10.454545454545459,1106.8333333333333,10.454545454545459,1109.25,10.454545454545459C1111.6666666666667,10.454545454545459,1114.0833333333333,10.454545454545459,1116.5,10.454545454545459C1118.9166666666667,10.454545454545459,1121.3333333333333,10.454545454545459,1123.75,10.454545454545459C1126.1666666666667,10.454545454545459,1128.5833333333333,10.454545454545459,1131,10.454545454545459C1133.4166666666667,10.454545454545459,1135.8333333333333,10.454545454545459,1138.25,10.454545454545459C1140.6666666666667,10.454545454545459,1143.0833333333333,10.454545454545459,1145.5,10.454545454545459C1147.9166666666667,10.454545454545459,1150.3333333333333,10.454545454545459,1152.75,10.454545454545459C1155.1666666666667,10.454545454545459,1157.5833333333333,10.454545454545459,1160,10.454545454545459C1162.4166666666667,10.454545454545459,1164.8333333333333,10.454545454545459,1167.25,10.454545454545459C1169.6666666666667,10.454545454545459,1172.0833333333333,10.454545454545459,1174.5,10.454545454545459C1176.9166666666667,10.454545454545459,1179.3333333333333,10.454545454545459,1181.75,10.454545454545459C1184.1666666666667,10.454545454545459,1186.5833333333333,10.454545454545459,1189,10.454545454545459C1191.4166666666667,10.454545454545459,1193.8333333333333,10.454545454545459,1196.25,10.454545454545459C1198.6666666666667,10.454545454545459,1201.0833333333333,10.454545454545459,1203.5,10.454545454545459C1205.9166666666667,10.454545454545459,1208.3333333333333,10.454545454545459,1210.75,10.454545454545459C1213.1666666666667,10.454545454545459,1215.5833333333333,10.454545454545459,1218,10.454545454545459C1220.4166666666667,10.454545454545459,1222.8333333333333,10.454545454545459,1225.25,10.454545454545459C1227.6666666666667,10.454545454545459,1230.0833333333333,10.454545454545459,1232.5,10.454545454545459C1234.9166666666667,10.454545454545459,1237.3333333333333,10.454545454545459,1239.75,10.454545454545459C1242.1666666666667,10.454545454545459,1244.5833333333333,10.454545454545459,1247,10.454545454545459C1249.4166666666667,10.454545454545459,1251.8333333333333,10.454545454545459,1254.25,10.454545454545459C1256.6666666666667,10.454545454545459,1259.0833333333333,10.454545454545459,1261.5,10.454545454545459C1263.9166666666667,10.454545454545459,1266.3333333333333,10.454545454545459,1268.75,10.454545454545459C1271.1666666666667,10.454545454545459,1273.5833333333333,10.454545454545459,1276,10.454545454545459C1278.4166666666667,10.454545454545459,1280.8333333333333,10.454545454545459,1283.25,10.454545454545459C1285.6666666666667,10.454545454545459,1288.0833333333333,10.454545454545459,1290.5,10.454545454545459C1292.9166666666667,10.454545454545459,1295.3333333333333,10.454545454545459,1297.75,10.454545454545459C1300.1666666666667,10.454545454545459,1302.5833333333333,10.454545454545459,1305,10.454545454545459C1307.4166666666667,10.454545454545459,1309.8333333333333,10.454545454545459,1312.25,10.454545454545459C1314.6666666666667,10.454545454545459,1317.0833333333333,10.454545454545459,1319.5,10.454545454545459C1321.9166666666667,10.454545454545459,1324.3333333333333,10.454545454545459,1326.75,10.454545454545459C1329.1666666666667,10.454545454545459,1331.5833333333333,10.454545454545459,1334,10.454545454545459C1336.4166666666667,10.454545454545459,1338.8333333333333,10.454545454545459,1341.25,10.454545454545459C1343.6666666666667,10.454545454545459,1346.0833333333333,10.454545454545459,1348.5,10.454545454545459C1350.9166666666667,10.454545454545459,1353.3333333333333,10.454545454545459,1355.75,10.454545454545459C1358.1666666666667,10.454545454545459,1360.5833333333333,10.454545454545459,1363,10.454545454545459C1365.4166666666667,10.454545454545459,1367.8333333333333,10.454545454545459,1370.25,10.454545454545459C1372.6666666666667,10.454545454545459,1375.0833333333333,10.454545454545459,1377.5,10.454545454545459C1379.9166666666667,10.454545454545459,1382.3333333333333,10.454545454545459,1384.75,10.454545454545459C1387.1666666666667,10.454545454545459,1389.5833333333333,10.454545454545459,1392,10.454545454545459C1394.4166666666667,10.454545454545459,1396.8333333333333,10.454545454545459,1399.25,10.454545454545459C1401.6666666666667,10.454545454545459,1404.0833333333333,10.454545454545459,1406.5,10.454545454545459C1408.9166666666667,10.454545454545459,1411.3333333333333,10.454545454545459,1413.75,10.454545454545459C1416.1666666666667,10.454545454545459,1418.5833333333333,10.454545454545459,1421,10.454545454545459C1423.4166666666667,10.454545454545459,1425.8333333333333,10.454545454545459,1428.25,10.454545454545459C1430.6666666666667,10.454545454545459,1433.0833333333333,10.454545454545459,1435.5,10.454545454545459C1437.9166666666667,10.454545454545459,1440.3333333333333,10.454545454545459,1442.75,10.454545454545459C1445.1666666666667,10.454545454545459,1447.5833333333333,5.227272727272729,1450,0" fill="transparent" stroke-linecap="round" stroke="#B6509E" stroke-width="2"></path><path class="visx-linepath" d="M0,115C2.4166666666666665,115,4.833333333333334,115,7.25,115C9.666666666666666,115,12.083333333333334,115,14.5,115C16.916666666666668,115,19.333333333333332,115,21.75,115C24.166666666666668,115,26.583333333333332,115,29,115C31.416666666666668,115,33.833333333333336,115,36.25,115C38.666666666666664,115,41.083333333333336,115,43.5,115C45.91666666666667,115,48.333333333333336,115,50.75000000000001,115C53.16666666666667,115,55.583333333333336,115,58,115C60.416666666666664,115,62.833333333333336,115,65.25,115C67.66666666666667,115,70.08333333333333,115,72.5,115C74.91666666666667,115,77.33333333333333,115,79.75,115C82.16666666666667,115,84.58333333333333,115,87,115C89.41666666666667,115,91.83333333333333,115,94.25,115C96.66666666666667,115,99.08333333333334,115,101.50000000000001,115C103.91666666666667,115,106.33333333333334,115,108.75,115C111.16666666666667,115,113.58333333333333,115,116,115C118.41666666666667,115,120.83333333333334,115,123.25000000000001,115C125.66666666666667,115,128.08333333333334,115,130.5,115C132.91666666666666,115,135.33333333333334,115,137.75,115C140.16666666666666,115,142.58333333333334,115,145,115C147.41666666666666,115,149.83333333333334,115,152.25,115C154.66666666666666,115,157.08333333333334,115,159.5,115C161.91666666666666,115,164.33333333333334,115,166.75,115C169.16666666666666,115,171.58333333333334,115,174,115C176.41666666666666,115,178.83333333333334,115,181.25,115C183.66666666666666,115,186.08333333333334,115,188.5,115C190.91666666666666,115,193.33333333333334,115,195.75,115C198.16666666666669,115,200.58333333333334,115,203.00000000000003,115C205.41666666666669,115,207.83333333333331,115,210.24999999999997,115C212.66666666666666,115,215.08333333333331,115,217.5,115C219.91666666666666,115,222.33333333333334,115,224.75,115C227.16666666666666,115,229.58333333333334,115,232,115C234.41666666666666,115,236.83333333333334,115,239.25,115C241.66666666666669,115,244.08333333333334,115,246.50000000000003,115C248.91666666666669,115,251.33333333333331,115,253.74999999999997,115C256.16666666666663,115,258.5833333333333,115,261,115C263.4166666666667,115,265.8333333333333,115,268.25,115C270.6666666666667,115,273.0833333333333,115,275.5,115C277.9166666666667,115,280.3333333333333,115,282.75,115C285.1666666666667,115,287.5833333333333,115,290,115C292.4166666666667,115,294.8333333333333,115,297.25,115C299.6666666666667,115,302.0833333333333,115,304.5,115C306.9166666666667,115,309.3333333333333,115,311.75,115C314.1666666666667,115,316.5833333333333,115,319,115C321.4166666666667,115,323.8333333333333,115,326.25,115C328.6666666666667,115,331.0833333333333,115,333.5,115C335.9166666666667,115,338.3333333333333,115,340.75,115C343.1666666666667,115,345.5833333333333,115,348,115C350.4166666666667,115,352.8333333333333,115,355.25,115C357.6666666666667,115,360.0833333333333,115,362.5,115C364.9166666666667,115,367.3333333333333,115,369.75,115C372.1666666666667,115,374.5833333333333,115,377,115C379.4166666666667,115,381.8333333333333,115,384.25,115C386.6666666666667,115,389.0833333333333,115,391.5,115C393.9166666666667,115,396.33333333333337,115,398.75000000000006,115C401.16666666666674,115,403.58333333333337,115,406.00000000000006,115C408.4166666666667,115,410.8333333333333,115,413.24999999999994,115C415.66666666666663,115,418.08333333333326,115,420.49999999999994,115C422.91666666666663,115,425.3333333333333,115,427.75,115C430.1666666666667,115,432.5833333333333,115,435,115C437.4166666666667,115,439.8333333333333,115,442.25,115C444.6666666666667,115,447.0833333333333,115,449.5,115C451.9166666666667,115,454.3333333333333,115,456.75,115C459.1666666666667,115,461.5833333333333,115,464,115C466.4166666666667,115,468.8333333333333,115,471.25,115C473.6666666666667,115,476.0833333333333,115,478.5,115C480.9166666666667,115,483.33333333333337,115,485.75000000000006,115C488.16666666666674,115,490.58333333333337,115,493.00000000000006,115C495.4166666666667,115,497.8333333333333,115,500.24999999999994,115C502.66666666666663,115,505.08333333333326,115,507.49999999999994,115C509.91666666666663,115,512.3333333333333,115,514.75,115C517.1666666666666,115,519.5833333333334,115,522,115C524.4166666666666,115,526.8333333333334,115,529.25,115C531.6666666666666,115,534.0833333333334,115,536.5,115C538.9166666666666,115,541.3333333333334,115,543.75,115C546.1666666666666,115,548.5833333333334,115,551,115C553.4166666666666,115,555.8333333333334,115,558.25,115C560.6666666666666,115,563.0833333333334,115,565.5,115C567.9166666666666,115,570.3333333333334,115,572.75,115C575.1666666666666,115,577.5833333333334,115,580,115C582.4166666666666,115,584.8333333333334,115,587.25,115C589.6666666666666,115,592.0833333333334,115,594.5,115C596.9166666666666,115,599.3333333333334,115,601.75,115C604.1666666666666,115,606.5833333333334,115,609,115C611.4166666666666,115,613.8333333333334,115,616.25,115C618.6666666666666,115,621.0833333333334,115,623.5,115C625.9166666666666,115,628.3333333333334,115,630.75,115C633.1666666666666,115,635.5833333333334,115,638,115C640.4166666666666,115,642.8333333333334,115,645.25,115C647.6666666666666,115,650.0833333333334,115,652.5,115C654.9166666666666,115,657.3333333333334,115,659.75,115C662.1666666666666,115,664.5833333333334,115,667,115C669.4166666666666,115,671.8333333333334,115,674.25,115C676.6666666666666,115,679.0833333333334,115,681.5,115C683.9166666666666,115,686.3333333333334,115,688.75,115C691.1666666666666,115,693.5833333333334,115,696,115C698.4166666666666,115,700.8333333333334,115,703.25,115C705.6666666666666,115,708.0833333333334,115,710.5,115C712.9166666666666,115,715.3333333333334,115,717.75,115C720.1666666666666,115,722.5833333333334,115,725,115C727.4166666666666,115,729.8333333333334,115,732.25,115C734.6666666666666,115,737.0833333333334,115,739.5,115C741.9166666666666,115,744.3333333333334,115,746.75,115C749.1666666666666,115,751.5833333333334,115,754,115C756.4166666666666,115,758.8333333333334,115,761.25,115C763.6666666666666,115,766.0833333333334,115,768.5,115C770.9166666666666,115,773.3333333333334,115,775.75,115C778.1666666666666,115,780.5833333333334,115,783,115C785.4166666666667,115,787.8333333333334,115,790.2500000000001,115C792.6666666666667,115,795.0833333333335,115,797.5000000000001,115C799.9166666666667,115,802.3333333333335,115,804.7500000000001,115C807.1666666666667,115,809.5833333333335,115,812.0000000000001,115C814.4166666666667,115,816.8333333333333,115,819.2499999999999,115C821.6666666666665,115,824.0833333333333,115,826.4999999999999,115C828.9166666666665,115,831.3333333333333,115,833.7499999999999,115C836.1666666666665,115,838.5833333333333,115,840.9999999999999,115C843.4166666666666,115,845.8333333333333,115,848.25,115C850.6666666666666,115,853.0833333333334,115,855.5,115C857.9166666666666,115,860.3333333333334,115,862.75,115C865.1666666666666,115,867.5833333333334,115,870,115C872.4166666666666,115,874.8333333333334,115,877.25,115C879.6666666666666,115,882.0833333333334,115,884.5,115C886.9166666666666,115,889.3333333333334,115,891.75,115C894.1666666666666,115,896.5833333333334,115,899,115C901.4166666666666,115,903.8333333333334,115,906.25,115C908.6666666666666,115,911.0833333333334,115,913.5,115C915.9166666666666,115,918.3333333333334,115,920.75,115C923.1666666666666,115,925.5833333333334,115,928,115C930.4166666666666,115,932.8333333333334,115,935.25,115C937.6666666666666,115,940.0833333333334,115,942.5,115C944.9166666666666,115,947.3333333333334,115,949.75,115C952.1666666666666,115,954.5833333333334,115,957,115C959.4166666666666,115,961.8333333333334,115,964.25,115C966.6666666666667,115,969.0833333333334,115,971.5000000000001,115C973.9166666666667,115,976.3333333333335,115,978.7500000000001,115C981.1666666666667,115,983.5833333333335,115,986.0000000000001,115C988.4166666666667,115,990.8333333333335,115,993.2500000000001,115C995.6666666666667,115,998.0833333333333,115,1000.4999999999999,115C1002.9166666666665,115,1005.3333333333333,115,1007.7499999999999,115C1010.1666666666665,115,1012.5833333333333,115,1014.9999999999999,115C1017.4166666666665,115,1019.8333333333333,115,1022.2499999999999,115C1024.6666666666665,115,1027.0833333333333,115,1029.5,115C1031.9166666666667,115,1034.3333333333333,115,1036.75,115C1039.1666666666667,115,1041.5833333333333,115,1044,115C1046.4166666666667,115,1048.8333333333333,115,1051.25,115C1053.6666666666667,115,1056.0833333333333,115,1058.5,115C1060.9166666666667,115,1063.3333333333333,115,1065.75,115C1068.1666666666667,115,1070.5833333333333,115,1073,115C1075.4166666666667,115,1077.8333333333333,115,1080.25,115C1082.6666666666667,115,1085.0833333333333,115,1087.5,115C1089.9166666666667,115,1092.3333333333333,115,1094.75,115C1097.1666666666667,115,1099.5833333333333,115,1102,115C1104.4166666666667,115,1106.8333333333333,115,1109.25,115C1111.6666666666667,115,1114.0833333333333,115,1116.5,115C1118.9166666666667,115,1121.3333333333333,115,1123.75,115C1126.1666666666667,115,1128.5833333333333,115,1131,115C1133.4166666666667,115,1135.8333333333333,115,1138.25,115C1140.6666666666667,115,1143.0833333333333,115,1145.5,115C1147.9166666666667,115,1150.3333333333333,115,1152.75,115C1155.1666666666667,115,1157.5833333333333,115,1160,115C1162.4166666666667,115,1164.8333333333333,115,1167.25,115C1169.6666666666667,115,1172.0833333333333,115,1174.5,115C1176.9166666666667,115,1179.3333333333333,115,1181.75,115C1184.1666666666667,115,1186.5833333333333,115,1189,115C1191.4166666666667,115,1193.8333333333333,115,1196.25,115C1198.6666666666667,115,1201.0833333333333,115,1203.5,115C1205.9166666666667,115,1208.3333333333333,115,1210.75,115C1213.1666666666667,115,1215.5833333333333,115,1218,115C1220.4166666666667,115,1222.8333333333333,115,1225.25,115C1227.6666666666667,115,1230.0833333333333,115,1232.5,115C1234.9166666666667,115,1237.3333333333333,115,1239.75,115C1242.1666666666667,115,1244.5833333333333,115,1247,115C1249.4166666666667,115,1251.8333333333333,115,1254.25,115C1256.6666666666667,115,1259.0833333333333,115,1261.5,115C1263.9166666666667,115,1266.3333333333333,115,1268.75,115C1271.1666666666667,115,1273.5833333333333,115,1276,115C1278.4166666666667,115,1280.8333333333333,115,1283.25,115C1285.6666666666667,115,1288.0833333333333,115,1290.5,115C1292.9166666666667,115,1295.3333333333333,115,1297.75,115C1300.1666666666667,115,1302.5833333333333,115,1305,115C1307.4166666666667,115,1309.8333333333333,115,1312.25,115C1314.6666666666667,115,1317.0833333333333,115,1319.5,115C1321.9166666666667,115,1324.3333333333333,115,1326.75,115C1329.1666666666667,115,1331.5833333333333,115,1334,115C1336.4166666666667,115,1338.8333333333333,115,1341.25,115C1343.6666666666667,115,1346.0833333333333,115,1348.5,115C1350.9166666666667,115,1353.3333333333333,115,1355.75,115C1358.1666666666667,115,1360.5833333333333,115,1363,115C1365.4166666666667,115,1367.8333333333333,115,1370.25,115C1372.6666666666667,115,1375.0833333333333,115,1377.5,115C1379.9166666666667,115,1382.3333333333333,115,1384.75,115C1387.1666666666667,115,1389.5833333333333,115,1392,115C1394.4166666666667,115,1396.8333333333333,115,1399.25,115C1401.6666666666667,115,1404.0833333333333,115,1406.5,115C1408.9166666666667,115,1411.3333333333333,115,1413.75,115C1416.1666666666667,115,1418.5833333333333,115,1421,115C1423.4166666666667,115,1425.8333333333333,115,1428.25,115C1430.6666666666667,115,1433.0833333333333,115,1435.5,115C1437.9166666666667,115,1440.3333333333333,115,1442.75,115C1445.1666666666667,115,1447.5833333333333,57.49999999999999,1450,0" fill="transparent" stroke-linecap="round" stroke="#E7C6DF" stroke-width="2"></path><g class="visx-group visx-axis visx-axis-bottom" transform="translate(0, 115)"><g class="visx-group visx-axis-tick" transform="translate(0, 0)"><line class="visx-line" x1="0" y1="0" x2="0" y2="8" fill="transparent" shape-rendering="crispEdges" stroke="#000" stroke-width="0" stroke-linecap="square"></line><svg x="0" y="0" font-size="10" style="overflow:visible"><text transform="" x="0" y="18" fill="#000" font-size="10" text-anchor="middle"><tspan x="0" dy="0em">0%</tspan></text></svg></g><g class="visx-group visx-axis-tick" transform="translate(0, 0)"><line class="visx-line" x1="362.5" y1="0" x2="362.5" y2="8" fill="transparent" shape-rendering="crispEdges" stroke="#000" stroke-width="0" stroke-linecap="square"></line><svg x="0" y="0" font-size="10" style="overflow:visible"><text transform="" x="362.5" y="18" fill="#000" font-size="10" text-anchor="middle"><tspan x="362.5" dy="0em">25%</tspan></text></svg></g><g class="visx-group visx-axis-tick" transform="translate(0, 0)"><line class="visx-line" x1="725" y1="0" x2="725" y2="8" fill="transparent" shape-rendering="crispEdges" stroke="#000" stroke-width="0" stroke-linecap="square"></line><svg x="0" y="0" font-size="10" style="overflow:visible"><text transform="" x="725" y="18" fill="#000" font-size="10" text-anchor="middle"><tspan x="725" dy="0em">50%</tspan></text></svg></g><g class="visx-group visx-axis-tick" transform="translate(0, 0)"><line class="visx-line" x1="1087.5" y1="0" x2="1087.5" y2="8" fill="transparent" shape-rendering="crispEdges" stroke="#000" stroke-width="0" stroke-linecap="square"></line><svg x="0" y="0" font-size="10" style="overflow:visible"><text transform="" x="1087.5" y="18" fill="#000" font-size="10" text-anchor="middle"><tspan x="1087.5" dy="0em">75%</tspan></text></svg></g><g class="visx-group visx-axis-tick" transform="translate(0, 0)"><line class="visx-line" x1="1450" y1="0" x2="1450" y2="8" fill="transparent" shape-rendering="crispEdges" stroke="#000" stroke-width="0" stroke-linecap="square"></line><svg x="0" y="0" font-size="10" style="overflow:visible"><text transform="" x="1450" y="18" fill="#000" font-size="10" text-anchor="middle"><tspan x="1450" dy="0em">100%</tspan></text></svg></g><line class="visx-line visx-axis-line" x1="0.5" y1="0" x2="1450.5" y2="0" fill="transparent" shape-rendering="crispEdges" stroke="#222" stroke-width="0"></line></g><g class="visx-group visx-axis visx-axis-left" transform="translate(0, 0)"><g class="visx-group visx-axis-tick" transform="translate(0, 0)"><line class="visx-line" x1="0" y1="115" x2="-8" y2="115" fill="transparent" shape-rendering="crispEdges" stroke="#222" stroke-width="0" stroke-linecap="square"></line><svg x="-30" y="0" font-size="8" style="overflow:visible"><text transform="" x="-8" y="115" fill="#000" font-size="8" text-anchor="start"><tspan x="-8" dy="0em">0%</tspan></text></svg></g><g class="visx-group visx-axis-tick" transform="translate(0, 0)"><line class="visx-line" x1="0" y1="62.72727272727272" x2="-8" y2="62.72727272727272" fill="transparent" shape-rendering="crispEdges" stroke="#222" stroke-width="0" stroke-linecap="square"></line><svg x="-30" y="0" font-size="8" style="overflow:visible"><text transform="" x="-8" y="62.72727272727272" fill="#000" font-size="8" text-anchor="start"><tspan x="-8" dy="0em">0.5%</tspan></text></svg></g><g class="visx-group visx-axis-tick" transform="translate(0, 0)"><line class="visx-line" x1="0" y1="10.454545454545459" x2="-8" y2="10.454545454545459" fill="transparent" shape-rendering="crispEdges" stroke="#222" stroke-width="0" stroke-linecap="square"></line><svg x="-30" y="0" font-size="8" style="overflow:visible"><text transform="" x="-8" y="10.454545454545459" fill="#000" font-size="8" text-anchor="start"><tspan x="-8" dy="0em">1%</tspan></text></svg></g><line class="visx-line visx-axis-line" x1="0" y1="115.5" x2="0" y2="0.5" fill="transparent" shape-rendering="crispEdges" stroke="#222" stroke-width="0"></line></g><rect class="visx-bar" width="1450" height="115" fill="transparent"></rect><line class="visx-line" x1="1450" y1="28" x2="1450" y2="115" fill="transparent" shape-rendering="crispEdges" stroke="#0062D2" stroke-width="1" pointer-events="none" stroke-dasharray="5,2"></line><svg x="0" y="0" font-size="10px" style="overflow:visible"><text transform="" x="1450" y="20" font-size="10px" fill="#fff" stroke="#fff" stroke-width="0.8em" text-anchor="middle"><tspan x="1450" dy="0.355em">Optimal 100%</tspan></text></svg><svg x="0" y="0" font-size="10px" style="overflow:visible"><text transform="" x="1450" y="20" font-size="10px" fill="#62677B" text-anchor="middle"><tspan x="1450" dy="0.355em">Optimal 100%</tspan></text></svg></g></svg>