<?xml version="1.0"?><svg xmlns="http://www.w3.org/2000/svg" xmlns:xlink= "http://www.w3.org/1999/xlink" style="background: white;" width="1500" height="185"> <g style="color: black; font-size: 13px; font-family: sans-serif; transform: translate(18px, 25px);"><g><circle r="3" cx="-6" cy="-5" style="fill: #B6509E" /><text>Borrow APR, variable</text></g><g style="transform: translateX(150px);"><circle r="3" cx="-6" cy="-5" style="fill: rgb(231, 198, 223)" /><text>Borrow APR, stable</text></g><g style="transform: translateX(290px);"><circle r="3" cx="-6" cy="-5" style="fill: rgb(0, 98, 210)" /><text>Utilization Rate</text></g></g><g class="visx-group" transform="translate(40, 50)"><g class="visx-group visx-rows" transform="translate(0, 0)"><line class="visx-line" x1="0" y1="115" x2="1450" y2="115" fill="transparent" shape-rendering="crispEdges" stroke="#000" stroke-width="1" stroke-dasharray="3,3" pointer-events="none"></line><line class="visx-line" x1="0" y1="57.5" x2="1450" y2="57.5" fill="transparent" shape-rendering="crispEdges" stroke="#000" stroke-width="1" stroke-dasharray="3,3" pointer-events="none"></line><line class="visx-line" x1="0" y1="0" x2="1450" y2="0" fill="transparent" shape-rendering="crispEdges" stroke="#000" stroke-width="1" stroke-dasharray="3,3" pointer-events="none"></line></g><path class="visx-linepath" d="M0,114.712499999885C2.4166666666666665,114.69333333326625,4.833333333333334,114.6741666666475,7.25,114.655C9.666666666666666,114.63583333335251,12.083333333333334,114.61666666666667,14.5,114.59750000000001C16.916666666666668,114.57833333333335,19.333333333333332,114.55916666666667,21.75,114.54C24.166666666666668,114.52083333333334,26.583333333333332,114.50166666666667,29,114.4825C31.416666666666668,114.46333333333334,33.833333333333336,114.44416666666666,36.25,114.425C38.666666666666664,114.40583333333333,41.083333333333336,114.38666666666667,43.5,114.3675C45.91666666666667,114.34833333333334,48.333333333333336,114.32916666666667,50.75000000000001,114.31C53.16666666666667,114.29083333333334,55.583333333333336,114.27166666666668,58,114.25250000000001C60.416666666666664,114.23333333333335,62.833333333333336,114.21416666666666,65.25,114.195C67.66666666666667,114.17583333333333,70.08333333333333,114.15666666666667,72.5,114.1375C74.91666666666667,114.11833333333334,77.33333333333333,114.09916666666666,79.75,114.08C82.16666666666667,114.06083333333333,84.58333333333333,114.04166666666667,87,114.02250000000001C89.41666666666667,114.00333333333334,91.83333333333333,113.98416666666667,94.25,113.965C96.66666666666667,113.94583333333334,99.08333333333334,113.92666666666666,101.50000000000001,113.9075C103.91666666666667,113.88833333333334,106.33333333333334,113.86916666666666,108.75,113.85C111.16666666666667,113.83083333333333,113.58333333333333,113.81166666666667,116,113.7925C118.41666666666667,113.77333333333334,120.83333333333334,113.75416666666666,123.25000000000001,113.735C125.66666666666667,113.71583333333334,128.08333333333334,113.69666666666667,130.5,113.67750000000001C132.91666666666666,113.65833333333335,135.33333333333334,113.63916666666667,137.75,113.62C140.16666666666666,113.60083333333334,142.58333333333334,113.58166666666666,145,113.5625C147.41666666666666,113.54333333333334,149.83333333333334,113.52416666666666,152.25,113.505C154.66666666666666,113.48583333333333,157.08333333333334,113.46666666666667,159.5,113.4475C161.91666666666666,113.42833333333334,164.33333333333334,113.40916666666666,166.75,113.39C169.16666666666666,113.37083333333334,171.58333333333334,113.35166666666667,174,113.33250000000001C176.41666666666666,113.31333333333335,178.83333333333334,113.29416666666665,181.25,113.27499999999999C183.66666666666666,113.25583333333333,186.08333333333334,113.23666666666666,188.5,113.2175C190.91666666666666,113.19833333333334,193.33333333333334,113.17916666666666,195.75,113.16C198.16666666666669,113.14083333333333,200.58333333333334,113.12166666666667,203.00000000000003,113.1025C205.41666666666669,113.08333333333334,207.83333333333331,113.06416666666667,210.24999999999997,113.045C212.66666666666666,113.02583333333334,215.08333333333331,113.00666666666667,217.5,112.98750000000001C219.91666666666666,112.96833333333335,222.33333333333334,112.94916666666666,224.75,112.92999999999999C227.16666666666666,112.91083333333333,229.58333333333334,112.89166666666667,232,112.8725C234.41666666666666,112.85333333333334,236.83333333333334,112.83416666666666,239.25,112.815C241.66666666666669,112.79583333333333,244.08333333333334,112.77666666666667,246.50000000000003,112.75750000000001C248.91666666666669,112.73833333333334,251.33333333333331,112.71916666666667,253.74999999999997,112.7C256.16666666666663,112.68083333333334,258.5833333333333,112.66166666666666,261,112.6425C263.4166666666667,112.62333333333333,265.8333333333333,112.60416666666666,268.25,112.585C270.6666666666667,112.56583333333333,273.0833333333333,112.54666666666667,275.5,112.5275C277.9166666666667,112.50833333333334,280.3333333333333,112.48916666666666,282.75,112.47C285.1666666666667,112.45083333333334,287.5833333333333,112.43166666666667,290,112.41250000000001C292.4166666666667,112.39333333333335,294.8333333333333,112.37416666666667,297.25,112.355C299.6666666666667,112.33583333333334,302.0833333333333,112.31666666666666,304.5,112.2975C306.9166666666667,112.27833333333334,309.3333333333333,112.25916666666666,311.75,112.24C314.1666666666667,112.22083333333333,316.5833333333333,112.20166666666667,319,112.1825C321.4166666666667,112.16333333333334,323.8333333333333,112.14416666666666,326.25,112.125C328.6666666666667,112.10583333333334,331.0833333333333,112.08666666666667,333.5,112.06750000000001C335.9166666666667,112.04833333333335,338.3333333333333,112.02916666666665,340.75,112.00999999999999C343.1666666666667,111.99083333333333,345.5833333333333,111.97166666666666,348,111.9525C350.4166666666667,111.93333333333334,352.8333333333333,111.91416666666666,355.25,111.895C357.6666666666667,111.87583333333333,360.0833333333333,111.85666666666667,362.5,111.8375C364.9166666666667,111.81833333333334,367.3333333333333,111.79916666666666,369.75,111.78C372.1666666666667,111.76083333333334,374.5833333333333,111.74166666666666,377,111.7225C379.4166666666667,111.70333333333333,381.8333333333333,111.68416666666666,384.25,111.66499999999999C386.6666666666667,111.64583333333333,389.0833333333333,111.62666666666667,391.5,111.6075C393.9166666666667,111.58833333333334,396.33333333333337,111.56916666666666,398.75000000000006,111.55C401.16666666666674,111.53083333333333,403.58333333333337,111.51166666666667,406.00000000000006,111.4925C408.4166666666667,111.47333333333334,410.8333333333333,111.45416666666667,413.24999999999994,111.435C415.66666666666663,111.41583333333334,418.08333333333326,111.39666666666666,420.49999999999994,111.3775C422.91666666666663,111.35833333333333,425.3333333333333,111.33916666666666,427.75,111.32C430.1666666666667,111.30083333333333,432.5833333333333,111.28166666666667,435,111.2625C437.4166666666667,111.24333333333334,439.8333333333333,111.22416666666666,442.25,111.205C444.6666666666667,111.18583333333333,447.0833333333333,111.16666666666667,449.5,111.14750000000001C451.9166666666667,111.12833333333334,454.3333333333333,111.10916666666667,456.75,111.09C459.1666666666667,111.07083333333334,461.5833333333333,111.05166666666666,464,111.0325C466.4166666666667,111.01333333333334,468.8333333333333,110.99416666666666,471.25,110.975C473.6666666666667,110.95583333333333,476.0833333333333,110.93666666666667,478.5,110.9175C480.9166666666667,110.89833333333334,483.33333333333337,110.87916666666666,485.75000000000006,110.86C488.16666666666674,110.84083333333334,490.58333333333337,110.82166666666667,493.00000000000006,110.80250000000001C495.4166666666667,110.78333333333335,497.8333333333333,110.76416666666665,500.24999999999994,110.74499999999999C502.66666666666663,110.72583333333333,505.08333333333326,110.70666666666666,507.49999999999994,110.6875C509.91666666666663,110.66833333333334,512.3333333333333,110.64916666666666,514.75,110.63C517.1666666666666,110.61083333333333,519.5833333333334,110.59166666666667,522,110.5725C524.4166666666666,110.55333333333334,526.8333333333334,110.53416666666666,529.25,110.515C531.6666666666666,110.49583333333334,534.0833333333334,110.47666666666666,536.5,110.4575C538.9166666666666,110.43833333333333,541.3333333333334,110.41916666666665,543.75,110.39999999999999C546.1666666666666,110.38083333333333,548.5833333333334,110.36166666666666,551,110.3425C553.4166666666666,110.32333333333334,555.8333333333334,110.30416666666666,558.25,110.285C560.6666666666666,110.26583333333333,563.0833333333334,110.24666666666667,565.5,110.2275C567.9166666666666,110.20833333333334,570.3333333333334,110.18916666666667,572.75,110.17C575.1666666666666,110.15083333333334,577.5833333333334,110.13166666666666,580,110.1125C582.4166666666666,110.09333333333333,584.8333333333334,110.07416666666666,587.25,110.05499999999999C589.6666666666666,110.03583333333333,592.0833333333334,110.01666666666667,594.5,109.9975C596.9166666666666,109.97833333333334,599.3333333333334,109.95916666666666,601.75,109.94C604.1666666666666,109.92083333333333,606.5833333333334,109.90166666666667,609,109.88250000000001C611.4166666666666,109.86333333333334,613.8333333333334,109.84416666666665,616.25,109.82499999999999C618.6666666666666,109.80583333333333,621.0833333333334,109.78666666666666,623.5,109.7675C625.9166666666666,109.74833333333333,628.3333333333334,109.72916666666666,630.75,109.71C633.1666666666666,109.69083333333333,635.5833333333334,109.67166666666667,638,109.6525C640.4166666666666,109.63333333333334,642.8333333333334,109.61416666666666,645.25,109.595C647.6666666666666,109.57583333333334,650.0833333333334,109.57583333333334,652.5,109.53750000000001C654.9166666666666,109.49916666666668,657.3333333333334,108.97992424242425,659.75,108.70113636363637C662.1666666666666,108.42234848484848,664.5833333333334,108.14356060606062,667,107.86477272727274C669.4166666666666,107.58598484848486,671.8333333333334,107.30719696969697,674.25,107.0284090909091C676.6666666666666,106.74962121212121,679.0833333333334,106.47083333333335,681.5,106.19204545454546C683.9166666666666,105.91325757575758,686.3333333333334,105.6344696969697,688.75,105.35568181818182C691.1666666666666,105.07689393939394,693.5833333333334,104.79810606060607,696,104.51931818181819C698.4166666666666,104.24053030303031,700.8333333333334,103.96174242424243,703.25,103.68295454545455C705.6666666666666,103.40416666666667,708.0833333333334,103.12537878787879,710.5,102.8465909090909C712.9166666666666,102.56780303030303,715.3333333333334,102.28901515151514,717.75,102.01022727272726C720.1666666666666,101.73143939393938,722.5833333333334,101.45265151515152,725,101.17386363636363C727.4166666666666,100.89507575757575,729.8333333333334,100.61628787878789,732.25,100.3375C734.6666666666666,100.05871212121212,737.0833333333334,99.77992424242424,739.5,99.50113636363636C741.9166666666666,99.22234848484848,744.3333333333334,98.9435606060606,746.75,98.66477272727272C749.1666666666666,98.38598484848484,751.5833333333334,98.10719696969697,754,97.82840909090909C756.4166666666666,97.54962121212121,758.8333333333334,97.27083333333333,761.25,96.99204545454545C763.6666666666666,96.71325757575757,766.0833333333334,96.4344696969697,768.5,96.15568181818182C770.9166666666666,95.87689393939394,773.3333333333334,95.59810606060606,775.75,95.31931818181818C778.1666666666666,95.0405303030303,780.5833333333334,94.76174242424241,783,94.48295454545453C785.4166666666667,94.20416666666665,787.8333333333334,93.92537878787878,790.2500000000001,93.6465909090909C792.6666666666667,93.36780303030302,795.0833333333335,93.08901515151516,797.5000000000001,92.81022727272727C799.9166666666667,92.5314393939394,802.3333333333335,92.25265151515153,804.7500000000001,91.97386363636365C807.1666666666667,91.69507575757576,809.5833333333335,91.41628787878788,812.0000000000001,91.1375C814.4166666666667,90.85871212121212,816.8333333333333,90.57992424242425,819.2499999999999,90.30113636363637C821.6666666666665,90.0223484848485,824.0833333333333,89.74356060606061,826.4999999999999,89.46477272727273C828.9166666666665,89.18598484848485,831.3333333333333,88.90719696969698,833.7499999999999,88.6284090909091C836.1666666666665,88.34962121212122,838.5833333333333,88.07083333333334,840.9999999999999,87.79204545454546C843.4166666666666,87.51325757575758,845.8333333333333,87.2344696969697,848.25,86.95568181818182C850.6666666666666,86.67689393939393,853.0833333333334,86.39810606060605,855.5,86.11931818181817C857.9166666666666,85.84053030303029,860.3333333333334,85.56174242424242,862.75,85.28295454545454C865.1666666666666,85.00416666666666,867.5833333333334,84.7253787878788,870,84.44659090909092C872.4166666666666,84.16780303030303,874.8333333333334,83.88901515151515,877.25,83.61022727272727C879.6666666666666,83.33143939393939,882.0833333333334,83.05265151515151,884.5,82.77386363636363C886.9166666666666,82.49507575757575,889.3333333333334,82.21628787878788,891.75,81.9375C894.1666666666666,81.65871212121212,896.5833333333334,81.37992424242424,899,81.10113636363636C901.4166666666666,80.82234848484848,903.8333333333334,80.54356060606061,906.25,80.26477272727273C908.6666666666666,79.98598484848485,911.0833333333334,79.70719696969697,913.5,79.42840909090908C915.9166666666666,79.1496212121212,918.3333333333334,78.87083333333332,920.75,78.59204545454544C923.1666666666666,78.31325757575756,925.5833333333334,78.0344696969697,928,77.75568181818181C930.4166666666666,77.47689393939393,932.8333333333334,77.19810606060607,935.25,76.91931818181818C937.6666666666666,76.6405303030303,940.0833333333334,76.36174242424244,942.5,76.08295454545456C944.9166666666666,75.80416666666667,947.3333333333334,75.5253787878788,949.75,75.24659090909091C952.1666666666666,74.96780303030303,954.5833333333334,74.68901515151515,957,74.41022727272727C959.4166666666666,74.13143939393939,961.8333333333334,73.85265151515152,964.25,73.57386363636364C966.6666666666667,73.29507575757576,969.0833333333334,73.01628787878789,971.5000000000001,72.73750000000001C973.9166666666667,72.45871212121213,976.3333333333335,72.17992424242425,978.7500000000001,71.90113636363637C981.1666666666667,71.62234848484849,983.5833333333335,71.3435606060606,986.0000000000001,71.06477272727273C988.4166666666667,70.78598484848484,990.8333333333335,70.50719696969696,993.2500000000001,70.22840909090908C995.6666666666667,69.9496212121212,998.0833333333333,69.67083333333332,1000.4999999999999,69.39204545454544C1002.9166666666665,69.11325757575756,1005.3333333333333,68.83446969696969,1007.7499999999999,68.55568181818181C1010.1666666666665,68.27689393939393,1012.5833333333333,67.99810606060606,1014.9999999999999,67.71931818181818C1017.4166666666665,67.4405303030303,1019.8333333333333,67.16174242424243,1022.2499999999999,66.88295454545455C1024.6666666666665,66.60416666666667,1027.0833333333333,66.3253787878788,1029.5,66.04659090909092C1031.9166666666667,65.76780303030304,1034.3333333333333,65.48901515151515,1036.75,65.21022727272727C1039.1666666666667,64.93143939393939,1041.5833333333333,64.65265151515152,1044,64.37386363636364C1046.4166666666667,64.09507575757576,1048.8333333333333,63.81628787878788,1051.25,63.5375C1053.6666666666667,63.25871212121212,1056.0833333333333,62.97992424242424,1058.5,62.70113636363636C1060.9166666666667,62.42234848484848,1063.3333333333333,62.1435606060606,1065.75,61.86477272727273C1068.1666666666667,61.585984848484856,1070.5833333333333,61.30719696969698,1073,61.0284090909091C1075.4166666666667,60.74962121212122,1077.8333333333333,60.47083333333334,1080.25,60.19204545454546C1082.6666666666667,59.91325757575758,1085.0833333333333,59.634469696969695,1087.5,59.355681818181814C1089.9166666666667,59.07689393939393,1092.3333333333333,58.79810606060605,1094.75,58.51931818181817C1097.1666666666667,58.24053030303029,1099.5833333333333,57.961742424242416,1102,57.68295454545454C1104.4166666666667,57.40416666666667,1106.8333333333333,57.12537878787879,1109.25,56.84659090909091C1111.6666666666667,56.567803030303025,1114.0833333333333,56.28901515151516,1116.5,56.01022727272728C1118.9166666666667,55.7314393939394,1121.3333333333333,55.452651515151516,1123.75,55.173863636363635C1126.1666666666667,54.89507575757575,1128.5833333333333,54.61628787878789,1131,54.337500000000006C1133.4166666666667,54.058712121212125,1135.8333333333333,53.779924242424244,1138.25,53.50113636363636C1140.6666666666667,53.22234848484848,1143.0833333333333,52.943560606060615,1145.5,52.664772727272734C1147.9166666666667,52.38598484848485,1150.3333333333333,52.10719696969697,1152.75,51.82840909090909C1155.1666666666667,51.54962121212121,1157.5833333333333,51.27083333333333,1160,50.99204545454545C1162.4166666666667,50.71325757575757,1164.8333333333333,50.4344696969697,1167.25,50.15568181818182C1169.6666666666667,49.87689393939394,1172.0833333333333,49.59810606060606,1174.5,49.319318181818176C1176.9166666666667,49.040530303030295,1179.3333333333333,48.76174242424243,1181.75,48.48295454545455C1184.1666666666667,48.204166666666666,1186.5833333333333,47.925378787878785,1189,47.64659090909091C1191.4166666666667,47.36780303030304,1193.8333333333333,47.08901515151516,1196.25,46.81022727272728C1198.6666666666667,46.5314393939394,1201.0833333333333,46.25265151515152,1203.5,45.97386363636364C1205.9166666666667,45.69507575757576,1208.3333333333333,45.41628787878788,1210.75,45.137499999999996C1213.1666666666667,44.858712121212115,1215.5833333333333,44.57992424242425,1218,44.30113636363637C1220.4166666666667,44.022348484848486,1222.8333333333333,43.743560606060605,1225.25,43.464772727272724C1227.6666666666667,43.18598484848484,1230.0833333333333,42.907196969696976,1232.5,42.628409090909095C1234.9166666666667,42.349621212121214,1237.3333333333333,42.07083333333333,1239.75,41.79204545454545C1242.1666666666667,41.51325757575757,1244.5833333333333,41.23446969696969,1247,40.95568181818181C1249.4166666666667,40.67689393939393,1251.8333333333333,40.398106060606054,1254.25,40.11931818181818C1256.6666666666667,39.840530303030306,1259.0833333333333,39.561742424242425,1261.5,39.282954545454544C1263.9166666666667,39.00416666666666,1266.3333333333333,38.725378787878796,1268.75,38.446590909090915C1271.1666666666667,38.167803030303034,1273.5833333333333,37.88901515151515,1276,37.61022727272727C1278.4166666666667,37.33143939393939,1280.8333333333333,37.052651515151524,1283.25,36.77386363636364C1285.6666666666667,36.49507575757576,1288.0833333333333,36.21628787878788,1290.5,35.9375C1292.9166666666667,35.65871212121212,1295.3333333333333,35.37992424242424,1297.75,35.10113636363636C1300.1666666666667,34.822348484848476,1302.5833333333333,34.54356060606061,1305,34.26477272727273C1307.4166666666667,33.98598484848485,1309.8333333333333,33.707196969696966,1312.25,33.428409090909085C1314.6666666666667,33.149621212121204,1317.0833333333333,32.87083333333334,1319.5,32.592045454545456C1321.9166666666667,32.313257575757575,1324.3333333333333,32.034469696969694,1326.75,31.755681818181817C1329.1666666666667,31.47689393939394,1331.5833333333333,31.198106060606065,1334,30.919318181818188C1336.4166666666667,30.64053030303031,1338.8333333333333,30.361742424242426,1341.25,30.082954545454545C1343.6666666666667,29.804166666666664,1346.0833333333333,29.525378787878783,1348.5,29.246590909090905C1350.9166666666667,28.967803030303028,1353.3333333333333,28.689015151515154,1355.75,28.410227272727276C1358.1666666666667,28.1314393939394,1360.5833333333333,27.85265151515151,1363,27.573863636363633C1365.4166666666667,27.295075757575756,1367.8333333333333,27.016287878787885,1370.25,26.737500000000004C1372.6666666666667,26.458712121212123,1375.0833333333333,26.179924242424228,1377.5,25.90113636363635C1379.9166666666667,25.622348484848473,1382.3333333333333,25.34356060606061,1384.75,25.064772727272732C1387.1666666666667,24.785984848484855,1389.5833333333333,24.507196969696956,1392,24.22840909090908C1394.4166666666667,23.9496212121212,1396.8333333333333,23.67083333333334,1399.25,23.392045454545464C1401.6666666666667,23.113257575757586,1404.0833333333333,22.834469696969688,1406.5,22.55568181818181C1408.9166666666667,22.276893939393933,1411.3333333333333,21.99810606060607,1413.75,21.719318181818192C1416.1666666666667,21.440530303030314,1418.5833333333333,21.16174242424242,1421,20.882954545454538C1423.4166666666667,20.604166666666657,1425.8333333333333,20.325378787878787,1428.25,20.04659090909091C1430.6666666666667,19.767803030303032,1433.0833333333333,19.489015151515144,1435.5,19.210227272727266C1437.9166666666667,18.93143939393939,1440.3333333333333,18.652651515151515,1442.75,18.373863636363637C1445.1666666666667,18.09507575757576,1447.5833333333333,17.81628787878788,1450,17.537499999999998" fill="transparent" stroke-linecap="round" stroke="#B6509E" stroke-width="2"></path><path class="visx-linepath" d="M0,109.82499999999999C2.4166666666666665,109.82499999999999,4.833333333333334,109.82499999999999,7.25,109.82499999999999C9.666666666666666,109.82499999999999,12.083333333333334,109.82499999999999,14.5,109.82499999999999C16.916666666666668,109.82499999999999,19.333333333333332,109.82499999999999,21.75,109.82499999999999C24.166666666666668,109.82499999999999,26.583333333333332,109.82499999999999,29,109.82499999999999C31.416666666666668,109.82499999999999,33.833333333333336,109.82499999999999,36.25,109.82499999999999C38.666666666666664,109.82499999999999,41.083333333333336,109.82499999999999,43.5,109.82499999999999C45.91666666666667,109.82499999999999,48.333333333333336,109.82499999999999,50.75000000000001,109.82499999999999C53.16666666666667,109.82499999999999,55.583333333333336,109.82499999999999,58,109.82499999999999C60.416666666666664,109.82499999999999,62.833333333333336,109.82499999999999,65.25,109.82499999999999C67.66666666666667,109.82499999999999,70.08333333333333,109.82499999999999,72.5,109.82499999999999C74.91666666666667,109.82499999999999,77.33333333333333,109.82499999999999,79.75,109.82499999999999C82.16666666666667,109.82499999999999,84.58333333333333,109.82499999999999,87,109.82499999999999C89.41666666666667,109.82499999999999,91.83333333333333,109.82499999999999,94.25,109.82499999999999C96.66666666666667,109.82499999999999,99.08333333333334,109.82499999999999,101.50000000000001,109.82499999999999C103.91666666666667,109.82499999999999,106.33333333333334,109.82499999999999,108.75,109.82499999999999C111.16666666666667,109.82499999999999,113.58333333333333,109.82499999999999,116,109.82499999999999C118.41666666666667,109.82499999999999,120.83333333333334,109.82499999999999,123.25000000000001,109.82499999999999C125.66666666666667,109.82499999999999,128.08333333333334,109.82499999999999,130.5,109.82499999999999C132.91666666666666,109.82499999999999,135.33333333333334,109.82499999999999,137.75,109.82499999999999C140.16666666666666,109.82499999999999,142.58333333333334,109.82499999999999,145,109.82499999999999C147.41666666666666,109.82499999999999,149.83333333333334,109.82499999999999,152.25,109.82499999999999C154.66666666666666,109.82499999999999,157.08333333333334,109.82499999999999,159.5,109.82499999999999C161.91666666666666,109.82499999999999,164.33333333333334,109.82499999999999,166.75,109.82499999999999C169.16666666666666,109.82499999999999,171.58333333333334,109.82499999999999,174,109.82499999999999C176.41666666666666,109.82499999999999,178.83333333333334,109.82499999999999,181.25,109.82499999999999C183.66666666666666,109.82499999999999,186.08333333333334,109.82499999999999,188.5,109.82499999999999C190.91666666666666,109.82499999999999,193.33333333333334,109.82499999999999,195.75,109.82499999999999C198.16666666666669,109.82499999999999,200.58333333333334,109.82499999999999,203.00000000000003,109.82499999999999C205.41666666666669,109.82499999999999,207.83333333333331,109.82499999999999,210.24999999999997,109.82499999999999C212.66666666666666,109.82499999999999,215.08333333333331,109.82499999999999,217.5,109.82499999999999C219.91666666666666,109.82499999999999,222.33333333333334,109.82499999999999,224.75,109.82499999999999C227.16666666666666,109.82499999999999,229.58333333333334,109.82499999999999,232,109.82499999999999C234.41666666666666,109.82499999999999,236.83333333333334,109.82499999999999,239.25,109.82499999999999C241.66666666666669,109.82499999999999,244.08333333333334,109.82499999999999,246.50000000000003,109.82499999999999C248.91666666666669,109.82499999999999,251.33333333333331,109.82499999999999,253.74999999999997,109.82499999999999C256.16666666666663,109.82499999999999,258.5833333333333,109.82499999999999,261,109.82499999999999C263.4166666666667,109.82499999999999,265.8333333333333,109.82499999999999,268.25,109.82499999999999C270.6666666666667,109.82499999999999,273.0833333333333,109.82499999999999,275.5,109.82499999999999C277.9166666666667,109.82499999999999,280.3333333333333,109.82499999999999,282.75,109.82499999999999C285.1666666666667,109.82499999999999,287.5833333333333,109.82499999999999,290,109.82499999999999C292.4166666666667,109.82499999999999,294.8333333333333,109.82499999999999,297.25,109.82499999999999C299.6666666666667,109.82499999999999,302.0833333333333,109.82499999999999,304.5,109.82499999999999C306.9166666666667,109.82499999999999,309.3333333333333,109.82499999999999,311.75,109.82499999999999C314.1666666666667,109.82499999999999,316.5833333333333,109.82499999999999,319,109.82499999999999C321.4166666666667,109.82499999999999,323.8333333333333,109.82499999999999,326.25,109.82499999999999C328.6666666666667,109.82499999999999,331.0833333333333,109.82499999999999,333.5,109.82499999999999C335.9166666666667,109.82499999999999,338.3333333333333,109.82499999999999,340.75,109.82499999999999C343.1666666666667,109.82499999999999,345.5833333333333,109.82499999999999,348,109.82499999999999C350.4166666666667,109.82499999999999,352.8333333333333,109.82499999999999,355.25,109.82499999999999C357.6666666666667,109.82499999999999,360.0833333333333,109.82499999999999,362.5,109.82499999999999C364.9166666666667,109.82499999999999,367.3333333333333,109.82499999999999,369.75,109.82499999999999C372.1666666666667,109.82499999999999,374.5833333333333,109.82499999999999,377,109.82499999999999C379.4166666666667,109.82499999999999,381.8333333333333,109.82499999999999,384.25,109.82499999999999C386.6666666666667,109.82499999999999,389.0833333333333,109.82499999999999,391.5,109.82499999999999C393.9166666666667,109.82499999999999,396.33333333333337,109.82499999999999,398.75000000000006,109.82499999999999C401.16666666666674,109.82499999999999,403.58333333333337,109.82499999999999,406.00000000000006,109.82499999999999C408.4166666666667,109.82499999999999,410.8333333333333,109.82499999999999,413.24999999999994,109.82499999999999C415.66666666666663,109.82499999999999,418.08333333333326,109.82499999999999,420.49999999999994,109.82499999999999C422.91666666666663,109.82499999999999,425.3333333333333,109.82499999999999,427.75,109.82499999999999C430.1666666666667,109.82499999999999,432.5833333333333,109.82499999999999,435,109.82499999999999C437.4166666666667,109.82499999999999,439.8333333333333,109.82499999999999,442.25,109.82499999999999C444.6666666666667,109.82499999999999,447.0833333333333,109.82499999999999,449.5,109.82499999999999C451.9166666666667,109.82499999999999,454.3333333333333,109.82499999999999,456.75,109.82499999999999C459.1666666666667,109.82499999999999,461.5833333333333,109.82499999999999,464,109.82499999999999C466.4166666666667,109.82499999999999,468.8333333333333,109.82499999999999,471.25,109.82499999999999C473.6666666666667,109.82499999999999,476.0833333333333,109.82499999999999,478.5,109.82499999999999C480.9166666666667,109.82499999999999,483.33333333333337,109.82499999999999,485.75000000000006,109.82499999999999C488.16666666666674,109.82499999999999,490.58333333333337,109.82499999999999,493.00000000000006,109.82499999999999C495.4166666666667,109.82499999999999,497.8333333333333,109.82499999999999,500.24999999999994,109.82499999999999C502.66666666666663,109.82499999999999,505.08333333333326,109.82499999999999,507.49999999999994,109.82499999999999C509.91666666666663,109.82499999999999,512.3333333333333,109.82499999999999,514.75,109.82499999999999C517.1666666666666,109.82499999999999,519.5833333333334,109.82499999999999,522,109.82499999999999C524.4166666666666,109.82499999999999,526.8333333333334,109.82499999999999,529.25,109.82499999999999C531.6666666666666,109.82499999999999,534.0833333333334,109.82499999999999,536.5,109.82499999999999C538.9166666666666,109.82499999999999,541.3333333333334,109.82499999999999,543.75,109.82499999999999C546.1666666666666,109.82499999999999,548.5833333333334,109.82499999999999,551,109.82499999999999C553.4166666666666,109.82499999999999,555.8333333333334,109.82499999999999,558.25,109.82499999999999C560.6666666666666,109.82499999999999,563.0833333333334,109.82499999999999,565.5,109.82499999999999C567.9166666666666,109.82499999999999,570.3333333333334,109.82499999999999,572.75,109.82499999999999C575.1666666666666,109.82499999999999,577.5833333333334,109.82499999999999,580,109.82499999999999C582.4166666666666,109.82499999999999,584.8333333333334,109.82499999999999,587.25,109.82499999999999C589.6666666666666,109.82499999999999,592.0833333333334,109.82499999999999,594.5,109.82499999999999C596.9166666666666,109.82499999999999,599.3333333333334,109.82499999999999,601.75,109.82499999999999C604.1666666666666,109.82499999999999,606.5833333333334,109.82499999999999,609,109.82499999999999C611.4166666666666,109.82499999999999,613.8333333333334,109.82499999999999,616.25,109.82499999999999C618.6666666666666,109.82499999999999,621.0833333333334,109.82499999999999,623.5,109.82499999999999C625.9166666666666,109.82499999999999,628.3333333333334,109.82499999999999,630.75,109.82499999999999C633.1666666666666,109.82499999999999,635.5833333333334,109.82499999999999,638,109.82499999999999C640.4166666666666,109.82499999999999,642.8333333333334,109.82499999999999,645.25,109.82499999999999C647.6666666666666,109.82499999999999,650.0833333333334,109.82499999999999,652.5,109.82499999999999C654.9166666666666,109.82499999999999,657.3333333333334,109.82499999999999,659.75,109.82499999999999C662.1666666666666,109.82499999999999,664.5833333333334,109.82499999999999,667,109.82499999999999C669.4166666666666,109.82499999999999,671.8333333333334,109.82499999999999,674.25,109.82499999999999C676.6666666666666,109.82499999999999,679.0833333333334,109.82499999999999,681.5,109.82499999999999C683.9166666666666,109.82499999999999,686.3333333333334,109.82499999999999,688.75,109.82499999999999C691.1666666666666,109.82499999999999,693.5833333333334,109.82499999999999,696,109.82499999999999C698.4166666666666,109.82499999999999,700.8333333333334,109.82499999999999,703.25,109.82499999999999C705.6666666666666,109.82499999999999,708.0833333333334,109.82499999999999,710.5,109.82499999999999C712.9166666666666,109.82499999999999,715.3333333333334,109.82499999999999,717.75,109.82499999999999C720.1666666666666,109.82499999999999,722.5833333333334,109.82499999999999,725,109.82499999999999C727.4166666666666,109.82499999999999,729.8333333333334,109.82499999999999,732.25,109.82499999999999C734.6666666666666,109.82499999999999,737.0833333333334,109.82499999999999,739.5,109.82499999999999C741.9166666666666,109.82499999999999,744.3333333333334,109.82499999999999,746.75,109.82499999999999C749.1666666666666,109.82499999999999,751.5833333333334,109.82499999999999,754,109.82499999999999C756.4166666666666,109.82499999999999,758.8333333333334,109.82499999999999,761.25,109.82499999999999C763.6666666666666,109.82499999999999,766.0833333333334,109.82499999999999,768.5,109.82499999999999C770.9166666666666,109.82499999999999,773.3333333333334,109.82499999999999,775.75,109.82499999999999C778.1666666666666,109.82499999999999,780.5833333333334,109.82499999999999,783,109.82499999999999C785.4166666666667,109.82499999999999,787.8333333333334,109.82499999999999,790.2500000000001,109.82499999999999C792.6666666666667,109.82499999999999,795.0833333333335,109.82499999999999,797.5000000000001,109.82499999999999C799.9166666666667,109.82499999999999,802.3333333333335,109.82499999999999,804.7500000000001,109.82499999999999C807.1666666666667,109.82499999999999,809.5833333333335,109.82499999999999,812.0000000000001,109.82499999999999C814.4166666666667,109.82499999999999,816.8333333333333,109.82499999999999,819.2499999999999,109.82499999999999C821.6666666666665,109.82499999999999,824.0833333333333,109.82499999999999,826.4999999999999,109.82499999999999C828.9166666666665,109.82499999999999,831.3333333333333,109.82499999999999,833.7499999999999,109.82499999999999C836.1666666666665,109.82499999999999,838.5833333333333,109.82499999999999,840.9999999999999,109.82499999999999C843.4166666666666,109.82499999999999,845.8333333333333,109.82499999999999,848.25,109.82499999999999C850.6666666666666,109.82499999999999,853.0833333333334,109.82499999999999,855.5,109.82499999999999C857.9166666666666,109.82499999999999,860.3333333333334,109.82499999999999,862.75,109.82499999999999C865.1666666666666,109.82499999999999,867.5833333333334,109.82499999999999,870,109.82499999999999C872.4166666666666,109.82499999999999,874.8333333333334,109.82499999999999,877.25,109.82499999999999C879.6666666666666,109.82499999999999,882.0833333333334,109.82499999999999,884.5,109.82499999999999C886.9166666666666,109.82499999999999,889.3333333333334,109.82499999999999,891.75,109.82499999999999C894.1666666666666,109.82499999999999,896.5833333333334,109.82499999999999,899,109.82499999999999C901.4166666666666,109.82499999999999,903.8333333333334,109.82499999999999,906.25,109.82499999999999C908.6666666666666,109.82499999999999,911.0833333333334,109.82499999999999,913.5,109.82499999999999C915.9166666666666,109.82499999999999,918.3333333333334,109.82499999999999,920.75,109.82499999999999C923.1666666666666,109.82499999999999,925.5833333333334,109.82499999999999,928,109.82499999999999C930.4166666666666,109.82499999999999,932.8333333333334,109.82499999999999,935.25,109.82499999999999C937.6666666666666,109.82499999999999,940.0833333333334,109.82499999999999,942.5,109.82499999999999C944.9166666666666,109.82499999999999,947.3333333333334,109.82499999999999,949.75,109.82499999999999C952.1666666666666,109.82499999999999,954.5833333333334,109.82499999999999,957,109.82499999999999C959.4166666666666,109.82499999999999,961.8333333333334,109.82499999999999,964.25,109.82499999999999C966.6666666666667,109.82499999999999,969.0833333333334,109.82499999999999,971.5000000000001,109.82499999999999C973.9166666666667,109.82499999999999,976.3333333333335,109.82499999999999,978.7500000000001,109.82499999999999C981.1666666666667,109.82499999999999,983.5833333333335,109.82499999999999,986.0000000000001,109.82499999999999C988.4166666666667,109.82499999999999,990.8333333333335,109.82499999999999,993.2500000000001,109.82499999999999C995.6666666666667,109.82499999999999,998.0833333333333,109.82499999999999,1000.4999999999999,109.82499999999999C1002.9166666666665,109.82499999999999,1005.3333333333333,109.82499999999999,1007.7499999999999,109.82499999999999C1010.1666666666665,109.82499999999999,1012.5833333333333,109.82499999999999,1014.9999999999999,109.82499999999999C1017.4166666666665,109.82499999999999,1019.8333333333333,109.82499999999999,1022.2499999999999,109.82499999999999C1024.6666666666665,109.82499999999999,1027.0833333333333,109.82499999999999,1029.5,109.82499999999999C1031.9166666666667,109.82499999999999,1034.3333333333333,109.82499999999999,1036.75,109.82499999999999C1039.1666666666667,109.82499999999999,1041.5833333333333,109.82499999999999,1044,109.82499999999999C1046.4166666666667,109.82499999999999,1048.8333333333333,109.82499999999999,1051.25,109.82499999999999C1053.6666666666667,109.82499999999999,1056.0833333333333,109.82499999999999,1058.5,109.82499999999999C1060.9166666666667,109.82499999999999,1063.3333333333333,109.82499999999999,1065.75,109.82499999999999C1068.1666666666667,109.82499999999999,1070.5833333333333,109.82499999999999,1073,109.82499999999999C1075.4166666666667,109.82499999999999,1077.8333333333333,109.82499999999999,1080.25,109.82499999999999C1082.6666666666667,109.82499999999999,1085.0833333333333,109.82499999999999,1087.5,109.82499999999999C1089.9166666666667,109.82499999999999,1092.3333333333333,109.82499999999999,1094.75,109.82499999999999C1097.1666666666667,109.82499999999999,1099.5833333333333,109.82499999999999,1102,109.82499999999999C1104.4166666666667,109.82499999999999,1106.8333333333333,109.82499999999999,1109.25,109.82499999999999C1111.6666666666667,109.82499999999999,1114.0833333333333,109.82499999999999,1116.5,109.82499999999999C1118.9166666666667,109.82499999999999,1121.3333333333333,109.82499999999999,1123.75,109.82499999999999C1126.1666666666667,109.82499999999999,1128.5833333333333,109.82499999999999,1131,109.82499999999999C1133.4166666666667,109.82499999999999,1135.8333333333333,109.82499999999999,1138.25,109.82499999999999C1140.6666666666667,109.82499999999999,1143.0833333333333,109.82499999999999,1145.5,109.82499999999999C1147.9166666666667,109.82499999999999,1150.3333333333333,109.82499999999999,1152.75,109.82499999999999C1155.1666666666667,109.82499999999999,1157.5833333333333,109.82499999999999,1160,109.82499999999999C1162.4166666666667,109.82499999999999,1164.8333333333333,109.82499999999999,1167.25,109.82499999999999C1169.6666666666667,109.82499999999999,1172.0833333333333,109.82499999999999,1174.5,109.82499999999999C1176.9166666666667,109.82499999999999,1179.3333333333333,109.82499999999999,1181.75,109.82499999999999C1184.1666666666667,109.82499999999999,1186.5833333333333,109.82499999999999,1189,109.82499999999999C1191.4166666666667,109.82499999999999,1193.8333333333333,109.82499999999999,1196.25,109.82499999999999C1198.6666666666667,109.82499999999999,1201.0833333333333,109.82499999999999,1203.5,109.82499999999999C1205.9166666666667,109.82499999999999,1208.3333333333333,109.82499999999999,1210.75,109.82499999999999C1213.1666666666667,109.82499999999999,1215.5833333333333,109.82499999999999,1218,109.82499999999999C1220.4166666666667,109.82499999999999,1222.8333333333333,109.82499999999999,1225.25,109.82499999999999C1227.6666666666667,109.82499999999999,1230.0833333333333,109.82499999999999,1232.5,109.82499999999999C1234.9166666666667,109.82499999999999,1237.3333333333333,109.82499999999999,1239.75,109.82499999999999C1242.1666666666667,109.82499999999999,1244.5833333333333,109.82499999999999,1247,109.82499999999999C1249.4166666666667,109.82499999999999,1251.8333333333333,109.82499999999999,1254.25,109.82499999999999C1256.6666666666667,109.82499999999999,1259.0833333333333,109.82499999999999,1261.5,109.82499999999999C1263.9166666666667,109.82499999999999,1266.3333333333333,109.82499999999999,1268.75,109.82499999999999C1271.1666666666667,109.82499999999999,1273.5833333333333,109.82499999999999,1276,109.82499999999999C1278.4166666666667,109.82499999999999,1280.8333333333333,109.82499999999999,1283.25,109.82499999999999C1285.6666666666667,109.82499999999999,1288.0833333333333,109.82499999999999,1290.5,109.82499999999999C1292.9166666666667,109.82499999999999,1295.3333333333333,109.82499999999999,1297.75,109.82499999999999C1300.1666666666667,109.82499999999999,1302.5833333333333,109.82499999999999,1305,109.82499999999999C1307.4166666666667,109.82499999999999,1309.8333333333333,109.82499999999999,1312.25,109.82499999999999C1314.6666666666667,109.82499999999999,1317.0833333333333,109.82499999999999,1319.5,109.82499999999999C1321.9166666666667,109.82499999999999,1324.3333333333333,109.82499999999999,1326.75,109.82499999999999C1329.1666666666667,109.82499999999999,1331.5833333333333,109.82499999999999,1334,109.82499999999999C1336.4166666666667,109.82499999999999,1338.8333333333333,109.82499999999999,1341.25,109.82499999999999C1343.6666666666667,109.82499999999999,1346.0833333333333,109.82499999999999,1348.5,109.82499999999999C1350.9166666666667,109.82499999999999,1353.3333333333333,109.82499999999999,1355.75,109.82499999999999C1358.1666666666667,109.82499999999999,1360.5833333333333,109.82499999999999,1363,109.82499999999999C1365.4166666666667,109.82499999999999,1367.8333333333333,109.82499999999999,1370.25,109.82499999999999C1372.6666666666667,109.82499999999999,1375.0833333333333,109.82499999999999,1377.5,109.82499999999999C1379.9166666666667,109.82499999999999,1382.3333333333333,109.82499999999999,1384.75,109.82499999999999C1387.1666666666667,109.82499999999999,1389.5833333333333,109.82499999999999,1392,109.82499999999999C1394.4166666666667,109.82499999999999,1396.8333333333333,109.82499999999999,1399.25,109.82499999999999C1401.6666666666667,109.82499999999999,1404.0833333333333,109.82499999999999,1406.5,109.82499999999999C1408.9166666666667,109.82499999999999,1411.3333333333333,109.82499999999999,1413.75,109.82499999999999C1416.1666666666667,109.82499999999999,1418.5833333333333,109.82499999999999,1421,109.82499999999999C1423.4166666666667,109.82499999999999,1425.8333333333333,109.82499999999999,1428.25,109.82499999999999C1430.6666666666667,109.82499999999999,1433.0833333333333,109.82499999999999,1435.5,109.82499999999999C1437.9166666666667,109.82499999999999,1440.3333333333333,109.82499999999999,1442.75,109.82499999999999C1445.1666666666667,109.82499999999999,1447.5833333333333,109.82499999999999,1450,109.82499999999999" fill="transparent" stroke-linecap="round" stroke="#E7C6DF" stroke-width="2"></path><g class="visx-group visx-axis visx-axis-bottom" transform="translate(0, 115)"><g class="visx-group visx-axis-tick" transform="translate(0, 0)"><line class="visx-line" x1="0" y1="0" x2="0" y2="8" fill="transparent" shape-rendering="crispEdges" stroke="#000" stroke-width="0" stroke-linecap="square"></line><svg x="0" y="0" font-size="10" style="overflow:visible"><text transform="" x="0" y="18" fill="#000" font-size="10" text-anchor="middle"><tspan x="0" dy="0em">0%</tspan></text></svg></g><g class="visx-group visx-axis-tick" transform="translate(0, 0)"><line class="visx-line" x1="362.5" y1="0" x2="362.5" y2="8" fill="transparent" shape-rendering="crispEdges" stroke="#000" stroke-width="0" stroke-linecap="square"></line><svg x="0" y="0" font-size="10" style="overflow:visible"><text transform="" x="362.5" y="18" fill="#000" font-size="10" text-anchor="middle"><tspan x="362.5" dy="0em">25%</tspan></text></svg></g><g class="visx-group visx-axis-tick" transform="translate(0, 0)"><line class="visx-line" x1="725" y1="0" x2="725" y2="8" fill="transparent" shape-rendering="crispEdges" stroke="#000" stroke-width="0" stroke-linecap="square"></line><svg x="0" y="0" font-size="10" style="overflow:visible"><text transform="" x="725" y="18" fill="#000" font-size="10" text-anchor="middle"><tspan x="725" dy="0em">50%</tspan></text></svg></g><g class="visx-group visx-axis-tick" transform="translate(0, 0)"><line class="visx-line" x1="1087.5" y1="0" x2="1087.5" y2="8" fill="transparent" shape-rendering="crispEdges" stroke="#000" stroke-width="0" stroke-linecap="square"></line><svg x="0" y="0" font-size="10" style="overflow:visible"><text transform="" x="1087.5" y="18" fill="#000" font-size="10" text-anchor="middle"><tspan x="1087.5" dy="0em">75%</tspan></text></svg></g><g class="visx-group visx-axis-tick" transform="translate(0, 0)"><line class="visx-line" x1="1450" y1="0" x2="1450" y2="8" fill="transparent" shape-rendering="crispEdges" stroke="#000" stroke-width="0" stroke-linecap="square"></line><svg x="0" y="0" font-size="10" style="overflow:visible"><text transform="" x="1450" y="18" fill="#000" font-size="10" text-anchor="middle"><tspan x="1450" dy="0em">100%</tspan></text></svg></g><line class="visx-line visx-axis-line" x1="0.5" y1="0" x2="1450.5" y2="0" fill="transparent" shape-rendering="crispEdges" stroke="#222" stroke-width="0"></line></g><g class="visx-group visx-axis visx-axis-left" transform="translate(0, 0)"><g class="visx-group visx-axis-tick" transform="translate(0, 0)"><line class="visx-line" x1="0" y1="115" x2="-8" y2="115" fill="transparent" shape-rendering="crispEdges" stroke="#222" stroke-width="0" stroke-linecap="square"></line><svg x="-30" y="0" font-size="8" style="overflow:visible"><text transform="" x="-8" y="115" fill="#000" font-size="8" text-anchor="start"><tspan x="-8" dy="0em">0%</tspan></text></svg></g><g class="visx-group visx-axis-tick" transform="translate(0, 0)"><line class="visx-line" x1="0" y1="57.5" x2="-8" y2="57.5" fill="transparent" shape-rendering="crispEdges" stroke="#222" stroke-width="0" stroke-linecap="square"></line><svg x="-30" y="0" font-size="8" style="overflow:visible"><text transform="" x="-8" y="57.5" fill="#000" font-size="8" text-anchor="start"><tspan x="-8" dy="0em">50%</tspan></text></svg></g><g class="visx-group visx-axis-tick" transform="translate(0, 0)"><line class="visx-line" x1="0" y1="0" x2="-8" y2="0" fill="transparent" shape-rendering="crispEdges" stroke="#222" stroke-width="0" stroke-linecap="square"></line><svg x="-30" y="0" font-size="8" style="overflow:visible"><text transform="" x="-8" y="0" fill="#000" font-size="8" text-anchor="start"><tspan x="-8" dy="0em">100%</tspan></text></svg></g><line class="visx-line visx-axis-line" x1="0" y1="115.5" x2="0" y2="0.5" fill="transparent" shape-rendering="crispEdges" stroke="#222" stroke-width="0"></line></g><rect class="visx-bar" width="1450" height="115" fill="transparent"></rect><line class="visx-line" x1="652.5" y1="28" x2="652.5" y2="115" fill="transparent" shape-rendering="crispEdges" stroke="#0062D2" stroke-width="1" pointer-events="none" stroke-dasharray="5,2"></line><svg x="0" y="0" font-size="10px" style="overflow:visible"><text transform="" x="652.5" y="20" font-size="10px" fill="#fff" stroke="#fff" stroke-width="0.8em" text-anchor="middle"><tspan x="652.5" dy="0.355em">Optimal 45%</tspan></text></svg><svg x="0" y="0" font-size="10px" style="overflow:visible"><text transform="" x="652.5" y="20" font-size="10px" fill="#62677B" text-anchor="middle"><tspan x="652.5" dy="0.355em">Optimal 45%</tspan></text></svg></g></svg>