<?xml version="1.0"?><svg xmlns="http://www.w3.org/2000/svg" xmlns:xlink= "http://www.w3.org/1999/xlink" style="background: white;" width="1500" height="185"> <g style="color: black; font-size: 13px; font-family: sans-serif; transform: translate(18px, 25px);"><g><circle r="3" cx="-6" cy="-5" style="fill: #B6509E" /><text>Borrow APR, variable</text></g><g style="transform: translateX(150px);"><circle r="3" cx="-6" cy="-5" style="fill: rgb(231, 198, 223)" /><text>Borrow APR, stable</text></g><g style="transform: translateX(290px);"><circle r="3" cx="-6" cy="-5" style="fill: rgb(0, 98, 210)" /><text>Utilization Rate</text></g></g><g class="visx-group" transform="translate(40, 50)"><g class="visx-group visx-rows" transform="translate(0, 0)"><line class="visx-line" x1="0" y1="115" x2="1450" y2="115" fill="transparent" shape-rendering="crispEdges" stroke="#000" stroke-width="1" stroke-dasharray="3,3" pointer-events="none"></line><line class="visx-line" x1="0" y1="82.14285714285714" x2="1450" y2="82.14285714285714" fill="transparent" shape-rendering="crispEdges" stroke="#000" stroke-width="1" stroke-dasharray="3,3" pointer-events="none"></line><line class="visx-line" x1="0" y1="49.28571428571429" x2="1450" y2="49.28571428571429" fill="transparent" shape-rendering="crispEdges" stroke="#000" stroke-width="1" stroke-dasharray="3,3" pointer-events="none"></line><line class="visx-line" x1="0" y1="16.428571428571434" x2="1450" y2="16.428571428571434" fill="transparent" shape-rendering="crispEdges" stroke="#000" stroke-width="1" stroke-dasharray="3,3" pointer-events="none"></line></g><path class="visx-linepath" d="M0,114.99999999995957C2.4166666666666665,114.9932600732365,4.833333333333334,114.98652014651341,7.25,114.97978021978022C9.666666666666666,114.97304029304703,12.083333333333334,114.96630036630036,14.5,114.95956043956043C16.916666666666668,114.95282051282051,19.333333333333332,114.94608058608058,21.75,114.93934065934066C24.166666666666668,114.93260073260073,26.583333333333332,114.92586080586081,29,114.91912087912088C31.416666666666668,114.91238095238096,33.833333333333336,114.90564102564102,36.25,114.89890109890109C38.666666666666664,114.89216117216117,41.083333333333336,114.88542124542124,43.5,114.87868131868132C45.91666666666667,114.87194139194139,48.333333333333336,114.86520146520147,50.75000000000001,114.85846153846154C53.16666666666667,114.85172161172162,55.583333333333336,114.84498168498168,58,114.83824175824175C60.416666666666664,114.83150183150182,62.833333333333336,114.8247619047619,65.25,114.81802197802197C67.66666666666667,114.81128205128205,70.08333333333333,114.80454212454212,72.5,114.7978021978022C74.91666666666667,114.79106227106227,77.33333333333333,114.78432234432233,79.75,114.77758241758241C82.16666666666667,114.77084249084248,84.58333333333333,114.76410256410256,87,114.75736263736263C89.41666666666667,114.75062271062271,91.83333333333333,114.74388278388278,94.25,114.73714285714286C96.66666666666667,114.73040293040293,99.08333333333334,114.72366300366299,101.50000000000001,114.71692307692307C103.91666666666667,114.71018315018314,106.33333333333334,114.70344322344323,108.75,114.6967032967033C111.16666666666667,114.68996336996338,113.58333333333333,114.68322344322345,116,114.67648351648353C118.41666666666667,114.6697435897436,120.83333333333334,114.66300366300366,123.25000000000001,114.65626373626374C125.66666666666667,114.64952380952381,128.08333333333334,114.64278388278389,130.5,114.63604395604396C132.91666666666666,114.62930402930404,135.33333333333334,114.62256410256411,137.75,114.61582417582419C140.16666666666666,114.60908424908426,142.58333333333334,114.60234432234432,145,114.5956043956044C147.41666666666666,114.58886446886447,149.83333333333334,114.58212454212455,152.25,114.57538461538462C154.66666666666666,114.5686446886447,157.08333333333334,114.56190476190477,159.5,114.55516483516485C161.91666666666666,114.54842490842492,164.33333333333334,114.54168498168498,166.75,114.53494505494506C169.16666666666666,114.52820512820513,171.58333333333334,114.5214652014652,174,114.51472527472528C176.41666666666666,114.50798534798535,178.83333333333334,114.50124542124541,181.25,114.49450549450549C183.66666666666666,114.48776556776556,186.08333333333334,114.48102564102564,188.5,114.47428571428571C190.91666666666666,114.46754578754579,193.33333333333334,114.46080586080586,195.75,114.45406593406594C198.16666666666669,114.44732600732601,200.58333333333334,114.44058608058607,203.00000000000003,114.43384615384615C205.41666666666669,114.42710622710622,207.83333333333331,114.4203663003663,210.24999999999997,114.41362637362637C212.66666666666666,114.40688644688645,215.08333333333331,114.40014652014652,217.5,114.3934065934066C219.91666666666666,114.38666666666667,222.33333333333334,114.37992673992673,224.75,114.3731868131868C227.16666666666666,114.36644688644688,229.58333333333334,114.35970695970695,232,114.35296703296703C234.41666666666666,114.3462271062271,236.83333333333334,114.33948717948718,239.25,114.33274725274725C241.66666666666669,114.32600732600733,244.08333333333334,114.31926739926739,246.50000000000003,114.31252747252746C248.91666666666669,114.30578754578754,251.33333333333331,114.29904761904761,253.74999999999997,114.29230769230769C256.16666666666663,114.28556776556776,258.5833333333333,114.27882783882784,261,114.27208791208791C263.4166666666667,114.26534798534799,265.8333333333333,114.25860805860805,268.25,114.25186813186812C270.6666666666667,114.2451282051282,273.0833333333333,114.23838827838827,275.5,114.23164835164835C277.9166666666667,114.22490842490842,280.3333333333333,114.2181684981685,282.75,114.21142857142857C285.1666666666667,114.20468864468864,287.5833333333333,114.1979487179487,290,114.19120879120878C292.4166666666667,114.18446886446885,294.8333333333333,114.17772893772893,297.25,114.170989010989C299.6666666666667,114.16424908424908,302.0833333333333,114.15750915750915,304.5,114.15076923076923C306.9166666666667,114.1440293040293,309.3333333333333,114.13728937728936,311.75,114.13054945054944C314.1666666666667,114.12380952380951,316.5833333333333,114.1170695970696,319,114.11032967032968C321.4166666666667,114.10358974358975,323.8333333333333,114.09684981684983,326.25,114.0901098901099C328.6666666666667,114.08336996336998,331.0833333333333,114.07663003663004,333.5,114.06989010989011C335.9166666666667,114.06315018315019,338.3333333333333,114.05641025641026,340.75,114.04967032967033C343.1666666666667,114.04293040293041,345.5833333333333,114.03619047619048,348,114.02945054945056C350.4166666666667,114.02271062271063,352.8333333333333,114.0159706959707,355.25,114.00923076923077C357.6666666666667,114.00249084249084,360.0833333333333,113.99575091575092,362.5,113.98901098901099C364.9166666666667,113.98227106227107,367.3333333333333,113.97553113553114,369.75,113.96879120879122C372.1666666666667,113.96205128205129,374.5833333333333,113.95531135531135,377,113.94857142857143C379.4166666666667,113.9418315018315,381.8333333333333,113.93509157509158,384.25,113.92835164835165C386.6666666666667,113.92161172161173,389.0833333333333,113.9148717948718,391.5,113.90813186813187C393.9166666666667,113.90139194139195,396.33333333333337,113.89465201465201,398.75000000000006,113.88791208791208C401.16666666666674,113.88117216117216,403.58333333333337,113.87443223443223,406.00000000000006,113.86769230769231C408.4166666666667,113.86095238095238,410.8333333333333,113.85421245421246,413.24999999999994,113.84747252747253C415.66666666666663,113.84073260073261,418.08333333333326,113.83399267399267,420.49999999999994,113.82725274725274C422.91666666666663,113.82051282051282,425.3333333333333,113.81377289377289,427.75,113.80703296703297C430.1666666666667,113.80029304029304,432.5833333333333,113.79355311355312,435,113.78681318681319C437.4166666666667,113.78007326007327,439.8333333333333,113.77333333333333,442.25,113.7665934065934C444.6666666666667,113.75985347985348,447.0833333333333,113.75311355311355,449.5,113.74637362637363C451.9166666666667,113.7396336996337,454.3333333333333,113.73289377289377,456.75,113.72615384615385C459.1666666666667,113.71941391941392,461.5833333333333,113.71267399267398,464,113.70593406593406C466.4166666666667,113.69919413919413,468.8333333333333,113.69245421245421,471.25,113.68571428571428C473.6666666666667,113.67897435897436,476.0833333333333,113.67223443223443,478.5,113.66549450549451C480.9166666666667,113.65875457875458,483.33333333333337,113.65201465201464,485.75000000000006,113.64527472527472C488.16666666666674,113.63853479853479,490.58333333333337,113.63179487179487,493.00000000000006,113.62505494505494C495.4166666666667,113.61831501831502,497.8333333333333,113.61157509157509,500.24999999999994,113.60483516483517C502.66666666666663,113.59809523809524,505.08333333333326,113.5913553113553,507.49999999999994,113.58461538461538C509.91666666666663,113.57787545787545,512.3333333333333,113.57113553113552,514.75,113.5643956043956C517.1666666666666,113.55765567765567,519.5833333333334,113.55091575091575,522,113.54417582417582C524.4166666666666,113.5374358974359,526.8333333333334,113.53069597069597,529.25,113.52395604395605C531.6666666666666,113.51721611721612,534.0833333333334,113.5104761904762,536.5,113.50373626373627C538.9166666666666,113.49699633699635,541.3333333333334,113.49025641025642,543.75,113.4835164835165C546.1666666666666,113.47677655677657,548.5833333333334,113.47003663003663,551,113.4632967032967C553.4166666666666,113.45655677655678,555.8333333333334,113.44981684981686,558.25,113.44307692307693C560.6666666666666,113.436336996337,563.0833333333334,113.42959706959707,565.5,113.42285714285714C567.9166666666666,113.41611721611721,570.3333333333334,113.40937728937729,572.75,113.40263736263736C575.1666666666666,113.39589743589744,577.5833333333334,113.38915750915751,580,113.38241758241759C582.4166666666666,113.37567765567766,584.8333333333334,113.36893772893772,587.25,113.3621978021978C589.6666666666666,113.35545787545787,592.0833333333334,113.34871794871795,594.5,113.34197802197802C596.9166666666666,113.3352380952381,599.3333333333334,113.32849816849817,601.75,113.32175824175825C604.1666666666666,113.31501831501832,606.5833333333334,113.30827838827838,609,113.30153846153846C611.4166666666666,113.29479853479853,613.8333333333334,113.2880586080586,616.25,113.28131868131868C618.6666666666666,113.27457875457876,621.0833333333334,113.26783882783883,623.5,113.2610989010989C625.9166666666666,113.25435897435898,628.3333333333334,113.24761904761904,630.75,113.24087912087911C633.1666666666666,113.23413919413919,635.5833333333334,113.22739926739926,638,113.22065934065934C640.4166666666666,113.21391941391941,642.8333333333334,113.20717948717949,645.25,113.20043956043956C647.6666666666666,113.19369963369964,650.0833333333334,113.1869597069597,652.5,113.18021978021977C654.9166666666666,113.17347985347985,657.3333333333334,113.16673992673992,659.75,113.16C662.1666666666666,113.15326007326007,664.5833333333334,113.14652014652015,667,113.13978021978022C669.4166666666666,113.1330402930403,671.8333333333334,113.12630036630036,674.25,113.11956043956043C676.6666666666666,113.1128205128205,679.0833333333334,113.10608058608058,681.5,113.09934065934065C683.9166666666666,113.09260073260073,686.3333333333334,113.0858608058608,688.75,113.07912087912088C691.1666666666666,113.07238095238095,693.5833333333334,113.06564102564101,696,113.05890109890109C698.4166666666666,113.05216117216116,700.8333333333334,113.04542124542124,703.25,113.03868131868131C705.6666666666666,113.03194139194139,708.0833333333334,113.02520146520146,710.5,113.01846153846154C712.9166666666666,113.01172161172161,715.3333333333334,113.00498168498167,717.75,112.99824175824175C720.1666666666666,112.99150183150182,722.5833333333334,112.9847619047619,725,112.97802197802197C727.4166666666666,112.97128205128205,729.8333333333334,112.96454212454212,732.25,112.9578021978022C734.6666666666666,112.95106227106227,737.0833333333334,112.94432234432234,739.5,112.93758241758242C741.9166666666666,112.9308424908425,744.3333333333334,112.92410256410257,746.75,112.91736263736264C749.1666666666666,112.91062271062272,751.5833333333334,112.90388278388279,754,112.89714285714287C756.4166666666666,112.89040293040294,758.8333333333334,112.883663003663,761.25,112.87692307692308C763.6666666666666,112.87018315018315,766.0833333333334,112.86344322344323,768.5,112.8567032967033C770.9166666666666,112.84996336996338,773.3333333333334,112.84322344322345,775.75,112.83648351648353C778.1666666666666,112.8297435897436,780.5833333333334,112.82300366300366,783,112.81626373626374C785.4166666666667,112.80952380952381,787.8333333333334,112.80278388278388,790.2500000000001,112.79604395604396C792.6666666666667,112.78930402930403,795.0833333333335,112.78256410256411,797.5000000000001,112.77582417582418C799.9166666666667,112.76908424908426,802.3333333333335,112.76234432234432,804.7500000000001,112.7556043956044C807.1666666666667,112.74886446886447,809.5833333333335,112.74212454212454,812.0000000000001,112.73538461538462C814.4166666666667,112.72864468864469,816.8333333333333,112.72190476190477,819.2499999999999,112.71516483516484C821.6666666666665,112.70842490842492,824.0833333333333,112.70168498168498,826.4999999999999,112.69494505494505C828.9166666666665,112.68820512820513,831.3333333333333,112.6814652014652,833.7499999999999,112.67472527472528C836.1666666666665,112.66798534798535,838.5833333333333,112.66124542124543,840.9999999999999,112.6545054945055C843.4166666666666,112.64776556776557,845.8333333333333,112.64102564102564,848.25,112.63428571428571C850.6666666666666,112.62754578754578,853.0833333333334,112.62080586080586,855.5,112.61406593406593C857.9166666666666,112.60732600732601,860.3333333333334,112.60058608058608,862.75,112.59384615384616C865.1666666666666,112.58710622710623,867.5833333333334,112.5803663003663,870,112.57362637362637C872.4166666666666,112.56688644688644,874.8333333333334,112.56014652014652,877.25,112.55340659340659C879.6666666666666,112.54666666666667,882.0833333333334,112.53992673992674,884.5,112.53318681318682C886.9166666666666,112.52644688644689,889.3333333333334,112.51970695970695,891.75,112.51296703296703C894.1666666666666,112.5062271062271,896.5833333333334,112.49948717948718,899,112.49274725274725C901.4166666666666,112.48600732600732,903.8333333333334,112.4792673992674,906.25,112.47252747252747C908.6666666666666,112.46578754578755,911.0833333333334,112.45904761904761,913.5,112.45230769230768C915.9166666666666,112.44556776556776,918.3333333333334,112.43882783882783,920.75,112.43208791208791C923.1666666666666,112.42534798534798,925.5833333333334,112.41860805860806,928,112.41186813186813C930.4166666666666,112.40512820512821,932.8333333333334,112.39838827838827,935.25,112.39164835164834C937.6666666666666,112.38490842490842,940.0833333333334,112.38490842490842,942.5,112.37142857142857C944.9166666666666,112.35794871794872,947.3333333333334,111.43265306122449,949.75,110.96326530612245C952.1666666666666,110.49387755102042,954.5833333333334,110.02448979591837,957,109.55510204081632C959.4166666666666,109.08571428571427,961.8333333333334,108.61632653061223,964.25,108.1469387755102C966.6666666666667,107.67755102040815,969.0833333333334,107.20816326530613,971.5000000000001,106.73877551020408C973.9166666666667,106.26938775510204,976.3333333333335,105.8,978.7500000000001,105.33061224489796C981.1666666666667,104.86122448979593,983.5833333333335,104.39183673469387,986.0000000000001,103.92244897959183C988.4166666666667,103.4530612244898,990.8333333333335,102.98367346938777,993.2500000000001,102.51428571428572C995.6666666666667,102.04489795918369,998.0833333333333,101.57551020408162,1000.4999999999999,101.10612244897959C1002.9166666666665,100.63673469387754,1005.3333333333333,100.1673469387755,1007.7499999999999,99.69795918367346C1010.1666666666665,99.22857142857143,1012.5833333333333,98.75918367346938,1014.9999999999999,98.28979591836735C1017.4166666666665,97.82040816326531,1019.8333333333333,97.35102040816325,1022.2499999999999,96.88163265306122C1024.6666666666665,96.41224489795917,1027.0833333333333,95.94285714285715,1029.5,95.4734693877551C1031.9166666666667,95.00408163265307,1034.3333333333333,94.53469387755102,1036.75,94.06530612244899C1039.1666666666667,93.59591836734695,1041.5833333333333,93.1265306122449,1044,92.65714285714286C1046.4166666666667,92.18775510204081,1048.8333333333333,91.71836734693876,1051.25,91.24897959183673C1053.6666666666667,90.7795918367347,1056.0833333333333,90.31020408163265,1058.5,89.84081632653061C1060.9166666666667,89.37142857142858,1063.3333333333333,88.90204081632652,1065.75,88.43265306122449C1068.1666666666667,87.96326530612245,1070.5833333333333,87.4938775510204,1073,87.02448979591837C1075.4166666666667,86.55510204081634,1077.8333333333333,86.0857142857143,1080.25,85.61632653061226C1082.6666666666667,85.14693877551021,1085.0833333333333,84.67755102040816,1087.5,84.20816326530611C1089.9166666666667,83.73877551020406,1092.3333333333333,83.26938775510203,1094.75,82.8C1097.1666666666667,82.33061224489796,1099.5833333333333,81.86122448979592,1102,81.39183673469388C1104.4166666666667,80.92244897959185,1106.8333333333333,80.45306122448982,1109.25,79.98367346938777C1111.6666666666667,79.51428571428572,1114.0833333333333,79.04489795918366,1116.5,78.57551020408162C1118.9166666666667,78.10612244897959,1121.3333333333333,77.63673469387756,1123.75,77.16734693877552C1126.1666666666667,76.69795918367349,1128.5833333333333,76.22857142857143,1131,75.75918367346938C1133.4166666666667,75.28979591836733,1135.8333333333333,74.8204081632653,1138.25,74.35102040816327C1140.6666666666667,73.88163265306123,1143.0833333333333,73.4122448979592,1145.5,72.94285714285715C1147.9166666666667,72.4734693877551,1150.3333333333333,72.00408163265305,1152.75,71.534693877551C1155.1666666666667,71.06530612244896,1157.5833333333333,70.59591836734693,1160,70.12653061224489C1162.4166666666667,69.65714285714286,1164.8333333333333,69.18775510204081,1167.25,68.71836734693878C1169.6666666666667,68.24897959183674,1172.0833333333333,67.7795918367347,1174.5,67.31020408163266C1176.9166666666667,66.84081632653063,1179.3333333333333,66.37142857142858,1181.75,65.90204081632653C1184.1666666666667,65.43265306122449,1186.5833333333333,64.96326530612244,1189,64.4938775510204C1191.4166666666667,64.02448979591837,1193.8333333333333,63.55510204081633,1196.25,63.08571428571429C1198.6666666666667,62.61632653061225,1201.0833333333333,62.1469387755102,1203.5,61.67755102040816C1205.9166666666667,61.20816326530612,1208.3333333333333,60.73877551020408,1210.75,60.26938775510204C1213.1666666666667,59.8,1215.5833333333333,59.33061224489795,1218,58.86122448979591C1220.4166666666667,58.39183673469387,1222.8333333333333,57.922448979591834,1225.25,57.453061224489794C1227.6666666666667,56.98367346938775,1230.0833333333333,56.51428571428572,1232.5,56.04489795918368C1234.9166666666667,55.57551020408164,1237.3333333333333,55.10612244897958,1239.75,54.63673469387754C1242.1666666666667,54.1673469387755,1244.5833333333333,53.69795918367347,1247,53.22857142857143C1249.4166666666667,52.75918367346939,1251.8333333333333,52.28979591836735,1254.25,51.82040816326531C1256.6666666666667,51.35102040816327,1259.0833333333333,50.88163265306122,1261.5,50.41224489795918C1263.9166666666667,49.942857142857136,1266.3333333333333,49.47346938775512,1268.75,49.004081632653076C1271.1666666666667,48.534693877551035,1273.5833333333333,48.06530612244897,1276,47.59591836734693C1278.4166666666667,47.12653061224489,1280.8333333333333,46.65714285714285,1283.25,46.18775510204081C1285.6666666666667,45.71836734693877,1288.0833333333333,45.248979591836736,1290.5,44.779591836734696C1292.9166666666667,44.310204081632655,1295.3333333333333,43.84081632653061,1297.75,43.37142857142857C1300.1666666666667,42.902040816326526,1302.5833333333333,42.43265306122449,1305,41.96326530612245C1307.4166666666667,41.49387755102041,1309.8333333333333,41.02448979591837,1312.25,40.55510204081633C1314.6666666666667,40.08571428571429,1317.0833333333333,39.61632653061224,1319.5,39.1469387755102C1321.9166666666667,38.67755102040816,1324.3333333333333,38.208163265306126,1326.75,37.738775510204086C1329.1666666666667,37.269387755102045,1331.5833333333333,36.800000000000004,1334,36.330612244897964C1336.4166666666667,35.86122448979592,1338.8333333333333,35.391836734693875,1341.25,34.922448979591834C1343.6666666666667,34.453061224489794,1346.0833333333333,33.98367346938776,1348.5,33.51428571428572C1350.9166666666667,33.04489795918368,1353.3333333333333,32.57551020408163,1355.75,32.10612244897959C1358.1666666666667,31.63673469387755,1360.5833333333333,31.16734693877552,1363,30.69795918367348C1365.4166666666667,30.22857142857144,1367.8333333333333,29.759183673469394,1370.25,29.289795918367354C1372.6666666666667,28.820408163265313,1375.0833333333333,28.35102040816328,1377.5,27.88163265306124C1379.9166666666667,27.412244897959198,1382.3333333333333,26.942857142857143,1384.75,26.4734693877551C1387.1666666666667,26.004081632653055,1389.5833333333333,25.534693877551014,1392,25.065306122448973C1394.4166666666667,24.595918367346933,1396.8333333333333,24.1265306122449,1399.25,23.65714285714286C1401.6666666666667,23.187755102040818,1404.0833333333333,22.718367346938773,1406.5,22.248979591836733C1408.9166666666667,21.779591836734692,1411.3333333333333,21.31020408163266,1413.75,20.840816326530618C1416.1666666666667,20.371428571428577,1418.5833333333333,19.902040816326537,1421,19.432653061224492C1423.4166666666667,18.963265306122448,1425.8333333333333,18.493877551020393,1428.25,18.024489795918353C1430.6666666666667,17.555102040816312,1433.0833333333333,17.08571428571428,1435.5,16.61632653061224C1437.9166666666667,16.146938775510204,1440.3333333333333,15.67755102040818,1442.75,15.208163265306139C1445.1666666666667,14.738775510204098,1447.5833333333333,14.269387755102048,1450,13.799999999999999" fill="transparent" stroke-linecap="round" stroke="#B6509E" stroke-width="2"></path><path class="visx-linepath" d="M0,112.37142857142857C2.4166666666666665,112.37142857142857,4.833333333333334,112.37142857142857,7.25,112.37142857142857C9.666666666666666,112.37142857142857,12.083333333333334,112.37142857142857,14.5,112.37142857142857C16.916666666666668,112.37142857142857,19.333333333333332,112.37142857142857,21.75,112.37142857142857C24.166666666666668,112.37142857142857,26.583333333333332,112.37142857142857,29,112.37142857142857C31.416666666666668,112.37142857142857,33.833333333333336,112.37142857142857,36.25,112.37142857142857C38.666666666666664,112.37142857142857,41.083333333333336,112.37142857142857,43.5,112.37142857142857C45.91666666666667,112.37142857142857,48.333333333333336,112.37142857142857,50.75000000000001,112.37142857142857C53.16666666666667,112.37142857142857,55.583333333333336,112.37142857142857,58,112.37142857142857C60.416666666666664,112.37142857142857,62.833333333333336,112.37142857142857,65.25,112.37142857142857C67.66666666666667,112.37142857142857,70.08333333333333,112.37142857142857,72.5,112.37142857142857C74.91666666666667,112.37142857142857,77.33333333333333,112.37142857142857,79.75,112.37142857142857C82.16666666666667,112.37142857142857,84.58333333333333,112.37142857142857,87,112.37142857142857C89.41666666666667,112.37142857142857,91.83333333333333,112.37142857142857,94.25,112.37142857142857C96.66666666666667,112.37142857142857,99.08333333333334,112.37142857142857,101.50000000000001,112.37142857142857C103.91666666666667,112.37142857142857,106.33333333333334,112.37142857142857,108.75,112.37142857142857C111.16666666666667,112.37142857142857,113.58333333333333,112.37142857142857,116,112.37142857142857C118.41666666666667,112.37142857142857,120.83333333333334,112.37142857142857,123.25000000000001,112.37142857142857C125.66666666666667,112.37142857142857,128.08333333333334,112.37142857142857,130.5,112.37142857142857C132.91666666666666,112.37142857142857,135.33333333333334,112.37142857142857,137.75,112.37142857142857C140.16666666666666,112.37142857142857,142.58333333333334,112.37142857142857,145,112.37142857142857C147.41666666666666,112.37142857142857,149.83333333333334,112.37142857142857,152.25,112.37142857142857C154.66666666666666,112.37142857142857,157.08333333333334,112.37142857142857,159.5,112.37142857142857C161.91666666666666,112.37142857142857,164.33333333333334,112.37142857142857,166.75,112.37142857142857C169.16666666666666,112.37142857142857,171.58333333333334,112.37142857142857,174,112.37142857142857C176.41666666666666,112.37142857142857,178.83333333333334,112.37142857142857,181.25,112.37142857142857C183.66666666666666,112.37142857142857,186.08333333333334,112.37142857142857,188.5,112.37142857142857C190.91666666666666,112.37142857142857,193.33333333333334,112.37142857142857,195.75,112.37142857142857C198.16666666666669,112.37142857142857,200.58333333333334,112.37142857142857,203.00000000000003,112.37142857142857C205.41666666666669,112.37142857142857,207.83333333333331,112.37142857142857,210.24999999999997,112.37142857142857C212.66666666666666,112.37142857142857,215.08333333333331,112.37142857142857,217.5,112.37142857142857C219.91666666666666,112.37142857142857,222.33333333333334,112.37142857142857,224.75,112.37142857142857C227.16666666666666,112.37142857142857,229.58333333333334,112.37142857142857,232,112.37142857142857C234.41666666666666,112.37142857142857,236.83333333333334,112.37142857142857,239.25,112.37142857142857C241.66666666666669,112.37142857142857,244.08333333333334,112.37142857142857,246.50000000000003,112.37142857142857C248.91666666666669,112.37142857142857,251.33333333333331,112.37142857142857,253.74999999999997,112.37142857142857C256.16666666666663,112.37142857142857,258.5833333333333,112.37142857142857,261,112.37142857142857C263.4166666666667,112.37142857142857,265.8333333333333,112.37142857142857,268.25,112.37142857142857C270.6666666666667,112.37142857142857,273.0833333333333,112.37142857142857,275.5,112.37142857142857C277.9166666666667,112.37142857142857,280.3333333333333,112.37142857142857,282.75,112.37142857142857C285.1666666666667,112.37142857142857,287.5833333333333,112.37142857142857,290,112.37142857142857C292.4166666666667,112.37142857142857,294.8333333333333,112.37142857142857,297.25,112.37142857142857C299.6666666666667,112.37142857142857,302.0833333333333,112.37142857142857,304.5,112.37142857142857C306.9166666666667,112.37142857142857,309.3333333333333,112.37142857142857,311.75,112.37142857142857C314.1666666666667,112.37142857142857,316.5833333333333,112.37142857142857,319,112.37142857142857C321.4166666666667,112.37142857142857,323.8333333333333,112.37142857142857,326.25,112.37142857142857C328.6666666666667,112.37142857142857,331.0833333333333,112.37142857142857,333.5,112.37142857142857C335.9166666666667,112.37142857142857,338.3333333333333,112.37142857142857,340.75,112.37142857142857C343.1666666666667,112.37142857142857,345.5833333333333,112.37142857142857,348,112.37142857142857C350.4166666666667,112.37142857142857,352.8333333333333,112.37142857142857,355.25,112.37142857142857C357.6666666666667,112.37142857142857,360.0833333333333,112.37142857142857,362.5,112.37142857142857C364.9166666666667,112.37142857142857,367.3333333333333,112.37142857142857,369.75,112.37142857142857C372.1666666666667,112.37142857142857,374.5833333333333,112.37142857142857,377,112.37142857142857C379.4166666666667,112.37142857142857,381.8333333333333,112.37142857142857,384.25,112.37142857142857C386.6666666666667,112.37142857142857,389.0833333333333,112.37142857142857,391.5,112.37142857142857C393.9166666666667,112.37142857142857,396.33333333333337,112.37142857142857,398.75000000000006,112.37142857142857C401.16666666666674,112.37142857142857,403.58333333333337,112.37142857142857,406.00000000000006,112.37142857142857C408.4166666666667,112.37142857142857,410.8333333333333,112.37142857142857,413.24999999999994,112.37142857142857C415.66666666666663,112.37142857142857,418.08333333333326,112.37142857142857,420.49999999999994,112.37142857142857C422.91666666666663,112.37142857142857,425.3333333333333,112.37142857142857,427.75,112.37142857142857C430.1666666666667,112.37142857142857,432.5833333333333,112.37142857142857,435,112.37142857142857C437.4166666666667,112.37142857142857,439.8333333333333,112.37142857142857,442.25,112.37142857142857C444.6666666666667,112.37142857142857,447.0833333333333,112.37142857142857,449.5,112.37142857142857C451.9166666666667,112.37142857142857,454.3333333333333,112.37142857142857,456.75,112.37142857142857C459.1666666666667,112.37142857142857,461.5833333333333,112.37142857142857,464,112.37142857142857C466.4166666666667,112.37142857142857,468.8333333333333,112.37142857142857,471.25,112.37142857142857C473.6666666666667,112.37142857142857,476.0833333333333,112.37142857142857,478.5,112.37142857142857C480.9166666666667,112.37142857142857,483.33333333333337,112.37142857142857,485.75000000000006,112.37142857142857C488.16666666666674,112.37142857142857,490.58333333333337,112.37142857142857,493.00000000000006,112.37142857142857C495.4166666666667,112.37142857142857,497.8333333333333,112.37142857142857,500.24999999999994,112.37142857142857C502.66666666666663,112.37142857142857,505.08333333333326,112.37142857142857,507.49999999999994,112.37142857142857C509.91666666666663,112.37142857142857,512.3333333333333,112.37142857142857,514.75,112.37142857142857C517.1666666666666,112.37142857142857,519.5833333333334,112.37142857142857,522,112.37142857142857C524.4166666666666,112.37142857142857,526.8333333333334,112.37142857142857,529.25,112.37142857142857C531.6666666666666,112.37142857142857,534.0833333333334,112.37142857142857,536.5,112.37142857142857C538.9166666666666,112.37142857142857,541.3333333333334,112.37142857142857,543.75,112.37142857142857C546.1666666666666,112.37142857142857,548.5833333333334,112.37142857142857,551,112.37142857142857C553.4166666666666,112.37142857142857,555.8333333333334,112.37142857142857,558.25,112.37142857142857C560.6666666666666,112.37142857142857,563.0833333333334,112.37142857142857,565.5,112.37142857142857C567.9166666666666,112.37142857142857,570.3333333333334,112.37142857142857,572.75,112.37142857142857C575.1666666666666,112.37142857142857,577.5833333333334,112.37142857142857,580,112.37142857142857C582.4166666666666,112.37142857142857,584.8333333333334,112.37142857142857,587.25,112.37142857142857C589.6666666666666,112.37142857142857,592.0833333333334,112.37142857142857,594.5,112.37142857142857C596.9166666666666,112.37142857142857,599.3333333333334,112.37142857142857,601.75,112.37142857142857C604.1666666666666,112.37142857142857,606.5833333333334,112.37142857142857,609,112.37142857142857C611.4166666666666,112.37142857142857,613.8333333333334,112.37142857142857,616.25,112.37142857142857C618.6666666666666,112.37142857142857,621.0833333333334,112.37142857142857,623.5,112.37142857142857C625.9166666666666,112.37142857142857,628.3333333333334,112.37142857142857,630.75,112.37142857142857C633.1666666666666,112.37142857142857,635.5833333333334,112.37142857142857,638,112.37142857142857C640.4166666666666,112.37142857142857,642.8333333333334,112.37142857142857,645.25,112.37142857142857C647.6666666666666,112.37142857142857,650.0833333333334,112.37142857142857,652.5,112.37142857142857C654.9166666666666,112.37142857142857,657.3333333333334,112.37142857142857,659.75,112.37142857142857C662.1666666666666,112.37142857142857,664.5833333333334,112.37142857142857,667,112.37142857142857C669.4166666666666,112.37142857142857,671.8333333333334,112.37142857142857,674.25,112.37142857142857C676.6666666666666,112.37142857142857,679.0833333333334,112.37142857142857,681.5,112.37142857142857C683.9166666666666,112.37142857142857,686.3333333333334,112.37142857142857,688.75,112.37142857142857C691.1666666666666,112.37142857142857,693.5833333333334,112.37142857142857,696,112.37142857142857C698.4166666666666,112.37142857142857,700.8333333333334,112.37142857142857,703.25,112.37142857142857C705.6666666666666,112.37142857142857,708.0833333333334,112.37142857142857,710.5,112.37142857142857C712.9166666666666,112.37142857142857,715.3333333333334,112.37142857142857,717.75,112.37142857142857C720.1666666666666,112.37142857142857,722.5833333333334,112.37142857142857,725,112.37142857142857C727.4166666666666,112.37142857142857,729.8333333333334,112.37142857142857,732.25,112.37142857142857C734.6666666666666,112.37142857142857,737.0833333333334,112.37142857142857,739.5,112.37142857142857C741.9166666666666,112.37142857142857,744.3333333333334,112.37142857142857,746.75,112.37142857142857C749.1666666666666,112.37142857142857,751.5833333333334,112.37142857142857,754,112.37142857142857C756.4166666666666,112.37142857142857,758.8333333333334,112.37142857142857,761.25,112.37142857142857C763.6666666666666,112.37142857142857,766.0833333333334,112.37142857142857,768.5,112.37142857142857C770.9166666666666,112.37142857142857,773.3333333333334,112.37142857142857,775.75,112.37142857142857C778.1666666666666,112.37142857142857,780.5833333333334,112.37142857142857,783,112.37142857142857C785.4166666666667,112.37142857142857,787.8333333333334,112.37142857142857,790.2500000000001,112.37142857142857C792.6666666666667,112.37142857142857,795.0833333333335,112.37142857142857,797.5000000000001,112.37142857142857C799.9166666666667,112.37142857142857,802.3333333333335,112.37142857142857,804.7500000000001,112.37142857142857C807.1666666666667,112.37142857142857,809.5833333333335,112.37142857142857,812.0000000000001,112.37142857142857C814.4166666666667,112.37142857142857,816.8333333333333,112.37142857142857,819.2499999999999,112.37142857142857C821.6666666666665,112.37142857142857,824.0833333333333,112.37142857142857,826.4999999999999,112.37142857142857C828.9166666666665,112.37142857142857,831.3333333333333,112.37142857142857,833.7499999999999,112.37142857142857C836.1666666666665,112.37142857142857,838.5833333333333,112.37142857142857,840.9999999999999,112.37142857142857C843.4166666666666,112.37142857142857,845.8333333333333,112.37142857142857,848.25,112.37142857142857C850.6666666666666,112.37142857142857,853.0833333333334,112.37142857142857,855.5,112.37142857142857C857.9166666666666,112.37142857142857,860.3333333333334,112.37142857142857,862.75,112.37142857142857C865.1666666666666,112.37142857142857,867.5833333333334,112.37142857142857,870,112.37142857142857C872.4166666666666,112.37142857142857,874.8333333333334,112.37142857142857,877.25,112.37142857142857C879.6666666666666,112.37142857142857,882.0833333333334,112.37142857142857,884.5,112.37142857142857C886.9166666666666,112.37142857142857,889.3333333333334,112.37142857142857,891.75,112.37142857142857C894.1666666666666,112.37142857142857,896.5833333333334,112.37142857142857,899,112.37142857142857C901.4166666666666,112.37142857142857,903.8333333333334,112.37142857142857,906.25,112.37142857142857C908.6666666666666,112.37142857142857,911.0833333333334,112.37142857142857,913.5,112.37142857142857C915.9166666666666,112.37142857142857,918.3333333333334,112.37142857142857,920.75,112.37142857142857C923.1666666666666,112.37142857142857,925.5833333333334,112.37142857142857,928,112.37142857142857C930.4166666666666,112.37142857142857,932.8333333333334,112.37142857142857,935.25,112.37142857142857C937.6666666666666,112.37142857142857,940.0833333333334,112.37142857142857,942.5,112.37142857142857C944.9166666666666,112.37142857142857,947.3333333333334,112.37142857142857,949.75,112.37142857142857C952.1666666666666,112.37142857142857,954.5833333333334,112.37142857142857,957,112.37142857142857C959.4166666666666,112.37142857142857,961.8333333333334,112.37142857142857,964.25,112.37142857142857C966.6666666666667,112.37142857142857,969.0833333333334,112.37142857142857,971.5000000000001,112.37142857142857C973.9166666666667,112.37142857142857,976.3333333333335,112.37142857142857,978.7500000000001,112.37142857142857C981.1666666666667,112.37142857142857,983.5833333333335,112.37142857142857,986.0000000000001,112.37142857142857C988.4166666666667,112.37142857142857,990.8333333333335,112.37142857142857,993.2500000000001,112.37142857142857C995.6666666666667,112.37142857142857,998.0833333333333,112.37142857142857,1000.4999999999999,112.37142857142857C1002.9166666666665,112.37142857142857,1005.3333333333333,112.37142857142857,1007.7499999999999,112.37142857142857C1010.1666666666665,112.37142857142857,1012.5833333333333,112.37142857142857,1014.9999999999999,112.37142857142857C1017.4166666666665,112.37142857142857,1019.8333333333333,112.37142857142857,1022.2499999999999,112.37142857142857C1024.6666666666665,112.37142857142857,1027.0833333333333,112.37142857142857,1029.5,112.37142857142857C1031.9166666666667,112.37142857142857,1034.3333333333333,112.37142857142857,1036.75,112.37142857142857C1039.1666666666667,112.37142857142857,1041.5833333333333,112.37142857142857,1044,112.37142857142857C1046.4166666666667,112.37142857142857,1048.8333333333333,112.37142857142857,1051.25,112.37142857142857C1053.6666666666667,112.37142857142857,1056.0833333333333,112.37142857142857,1058.5,112.37142857142857C1060.9166666666667,112.37142857142857,1063.3333333333333,112.37142857142857,1065.75,112.37142857142857C1068.1666666666667,112.37142857142857,1070.5833333333333,112.37142857142857,1073,112.37142857142857C1075.4166666666667,112.37142857142857,1077.8333333333333,112.37142857142857,1080.25,112.37142857142857C1082.6666666666667,112.37142857142857,1085.0833333333333,112.37142857142857,1087.5,112.37142857142857C1089.9166666666667,112.37142857142857,1092.3333333333333,112.37142857142857,1094.75,112.37142857142857C1097.1666666666667,112.37142857142857,1099.5833333333333,112.37142857142857,1102,112.37142857142857C1104.4166666666667,112.37142857142857,1106.8333333333333,112.37142857142857,1109.25,112.37142857142857C1111.6666666666667,112.37142857142857,1114.0833333333333,112.37142857142857,1116.5,112.37142857142857C1118.9166666666667,112.37142857142857,1121.3333333333333,112.37142857142857,1123.75,112.37142857142857C1126.1666666666667,112.37142857142857,1128.5833333333333,112.37142857142857,1131,112.37142857142857C1133.4166666666667,112.37142857142857,1135.8333333333333,112.37142857142857,1138.25,112.37142857142857C1140.6666666666667,112.37142857142857,1143.0833333333333,112.37142857142857,1145.5,112.37142857142857C1147.9166666666667,112.37142857142857,1150.3333333333333,112.37142857142857,1152.75,112.37142857142857C1155.1666666666667,112.37142857142857,1157.5833333333333,112.37142857142857,1160,112.37142857142857C1162.4166666666667,112.37142857142857,1164.8333333333333,112.37142857142857,1167.25,112.37142857142857C1169.6666666666667,112.37142857142857,1172.0833333333333,112.37142857142857,1174.5,112.37142857142857C1176.9166666666667,112.37142857142857,1179.3333333333333,112.37142857142857,1181.75,112.37142857142857C1184.1666666666667,112.37142857142857,1186.5833333333333,112.37142857142857,1189,112.37142857142857C1191.4166666666667,112.37142857142857,1193.8333333333333,112.37142857142857,1196.25,112.37142857142857C1198.6666666666667,112.37142857142857,1201.0833333333333,112.37142857142857,1203.5,112.37142857142857C1205.9166666666667,112.37142857142857,1208.3333333333333,112.37142857142857,1210.75,112.37142857142857C1213.1666666666667,112.37142857142857,1215.5833333333333,112.37142857142857,1218,112.37142857142857C1220.4166666666667,112.37142857142857,1222.8333333333333,112.37142857142857,1225.25,112.37142857142857C1227.6666666666667,112.37142857142857,1230.0833333333333,112.37142857142857,1232.5,112.37142857142857C1234.9166666666667,112.37142857142857,1237.3333333333333,112.37142857142857,1239.75,112.37142857142857C1242.1666666666667,112.37142857142857,1244.5833333333333,112.37142857142857,1247,112.37142857142857C1249.4166666666667,112.37142857142857,1251.8333333333333,112.37142857142857,1254.25,112.37142857142857C1256.6666666666667,112.37142857142857,1259.0833333333333,112.37142857142857,1261.5,112.37142857142857C1263.9166666666667,112.37142857142857,1266.3333333333333,112.37142857142857,1268.75,112.37142857142857C1271.1666666666667,112.37142857142857,1273.5833333333333,112.37142857142857,1276,112.37142857142857C1278.4166666666667,112.37142857142857,1280.8333333333333,112.37142857142857,1283.25,112.37142857142857C1285.6666666666667,112.37142857142857,1288.0833333333333,112.37142857142857,1290.5,112.37142857142857C1292.9166666666667,112.37142857142857,1295.3333333333333,112.37142857142857,1297.75,112.37142857142857C1300.1666666666667,112.37142857142857,1302.5833333333333,112.37142857142857,1305,112.37142857142857C1307.4166666666667,112.37142857142857,1309.8333333333333,112.37142857142857,1312.25,112.37142857142857C1314.6666666666667,112.37142857142857,1317.0833333333333,112.37142857142857,1319.5,112.37142857142857C1321.9166666666667,112.37142857142857,1324.3333333333333,112.37142857142857,1326.75,112.37142857142857C1329.1666666666667,112.37142857142857,1331.5833333333333,112.37142857142857,1334,112.37142857142857C1336.4166666666667,112.37142857142857,1338.8333333333333,112.37142857142857,1341.25,112.37142857142857C1343.6666666666667,112.37142857142857,1346.0833333333333,112.37142857142857,1348.5,112.37142857142857C1350.9166666666667,112.37142857142857,1353.3333333333333,112.37142857142857,1355.75,112.37142857142857C1358.1666666666667,112.37142857142857,1360.5833333333333,112.37142857142857,1363,112.37142857142857C1365.4166666666667,112.37142857142857,1367.8333333333333,112.37142857142857,1370.25,112.37142857142857C1372.6666666666667,112.37142857142857,1375.0833333333333,112.37142857142857,1377.5,112.37142857142857C1379.9166666666667,112.37142857142857,1382.3333333333333,112.37142857142857,1384.75,112.37142857142857C1387.1666666666667,112.37142857142857,1389.5833333333333,112.37142857142857,1392,112.37142857142857C1394.4166666666667,112.37142857142857,1396.8333333333333,112.37142857142857,1399.25,112.37142857142857C1401.6666666666667,112.37142857142857,1404.0833333333333,112.37142857142857,1406.5,112.37142857142857C1408.9166666666667,112.37142857142857,1411.3333333333333,112.37142857142857,1413.75,112.37142857142857C1416.1666666666667,112.37142857142857,1418.5833333333333,112.37142857142857,1421,112.37142857142857C1423.4166666666667,112.37142857142857,1425.8333333333333,112.37142857142857,1428.25,112.37142857142857C1430.6666666666667,112.37142857142857,1433.0833333333333,112.37142857142857,1435.5,112.37142857142857C1437.9166666666667,112.37142857142857,1440.3333333333333,112.37142857142857,1442.75,112.37142857142857C1445.1666666666667,112.37142857142857,1447.5833333333333,112.37142857142857,1450,112.37142857142857" fill="transparent" stroke-linecap="round" stroke="#E7C6DF" stroke-width="2"></path><g class="visx-group visx-axis visx-axis-bottom" transform="translate(0, 115)"><g class="visx-group visx-axis-tick" transform="translate(0, 0)"><line class="visx-line" x1="0" y1="0" x2="0" y2="8" fill="transparent" shape-rendering="crispEdges" stroke="#000" stroke-width="0" stroke-linecap="square"></line><svg x="0" y="0" font-size="10" style="overflow:visible"><text transform="" x="0" y="18" fill="#000" font-size="10" text-anchor="middle"><tspan x="0" dy="0em">0%</tspan></text></svg></g><g class="visx-group visx-axis-tick" transform="translate(0, 0)"><line class="visx-line" x1="362.5" y1="0" x2="362.5" y2="8" fill="transparent" shape-rendering="crispEdges" stroke="#000" stroke-width="0" stroke-linecap="square"></line><svg x="0" y="0" font-size="10" style="overflow:visible"><text transform="" x="362.5" y="18" fill="#000" font-size="10" text-anchor="middle"><tspan x="362.5" dy="0em">25%</tspan></text></svg></g><g class="visx-group visx-axis-tick" transform="translate(0, 0)"><line class="visx-line" x1="725" y1="0" x2="725" y2="8" fill="transparent" shape-rendering="crispEdges" stroke="#000" stroke-width="0" stroke-linecap="square"></line><svg x="0" y="0" font-size="10" style="overflow:visible"><text transform="" x="725" y="18" fill="#000" font-size="10" text-anchor="middle"><tspan x="725" dy="0em">50%</tspan></text></svg></g><g class="visx-group visx-axis-tick" transform="translate(0, 0)"><line class="visx-line" x1="1087.5" y1="0" x2="1087.5" y2="8" fill="transparent" shape-rendering="crispEdges" stroke="#000" stroke-width="0" stroke-linecap="square"></line><svg x="0" y="0" font-size="10" style="overflow:visible"><text transform="" x="1087.5" y="18" fill="#000" font-size="10" text-anchor="middle"><tspan x="1087.5" dy="0em">75%</tspan></text></svg></g><g class="visx-group visx-axis-tick" transform="translate(0, 0)"><line class="visx-line" x1="1450" y1="0" x2="1450" y2="8" fill="transparent" shape-rendering="crispEdges" stroke="#000" stroke-width="0" stroke-linecap="square"></line><svg x="0" y="0" font-size="10" style="overflow:visible"><text transform="" x="1450" y="18" fill="#000" font-size="10" text-anchor="middle"><tspan x="1450" dy="0em">100%</tspan></text></svg></g><line class="visx-line visx-axis-line" x1="0.5" y1="0" x2="1450.5" y2="0" fill="transparent" shape-rendering="crispEdges" stroke="#222" stroke-width="0"></line></g><g class="visx-group visx-axis visx-axis-left" transform="translate(0, 0)"><g class="visx-group visx-axis-tick" transform="translate(0, 0)"><line class="visx-line" x1="0" y1="115" x2="-8" y2="115" fill="transparent" shape-rendering="crispEdges" stroke="#222" stroke-width="0" stroke-linecap="square"></line><svg x="-30" y="0" font-size="8" style="overflow:visible"><text transform="" x="-8" y="115" fill="#000" font-size="8" text-anchor="start"><tspan x="-8" dy="0em">0%</tspan></text></svg></g><g class="visx-group visx-axis-tick" transform="translate(0, 0)"><line class="visx-line" x1="0" y1="49.28571428571429" x2="-8" y2="49.28571428571429" fill="transparent" shape-rendering="crispEdges" stroke="#222" stroke-width="0" stroke-linecap="square"></line><svg x="-30" y="0" font-size="8" style="overflow:visible"><text transform="" x="-8" y="49.28571428571429" fill="#000" font-size="8" text-anchor="start"><tspan x="-8" dy="0em">200%</tspan></text></svg></g><line class="visx-line visx-axis-line" x1="0" y1="115.5" x2="0" y2="0.5" fill="transparent" shape-rendering="crispEdges" stroke="#222" stroke-width="0"></line></g><rect class="visx-bar" width="1450" height="115" fill="transparent"></rect><line class="visx-line" x1="942.5" y1="28" x2="942.5" y2="115" fill="transparent" shape-rendering="crispEdges" stroke="#0062D2" stroke-width="1" pointer-events="none" stroke-dasharray="5,2"></line><svg x="0" y="0" font-size="10px" style="overflow:visible"><text transform="" x="942.5" y="20" font-size="10px" fill="#fff" stroke="#fff" stroke-width="0.8em" text-anchor="middle"><tspan x="942.5" dy="0.355em">Optimal 65%</tspan></text></svg><svg x="0" y="0" font-size="10px" style="overflow:visible"><text transform="" x="942.5" y="20" font-size="10px" fill="#62677B" text-anchor="middle"><tspan x="942.5" dy="0.355em">Optimal 65%</tspan></text></svg></g></svg>