<?xml version="1.0"?><svg xmlns="http://www.w3.org/2000/svg" xmlns:xlink= "http://www.w3.org/1999/xlink" style="background: white;" width="1500" height="185"> <g style="color: black; font-size: 13px; font-family: sans-serif; transform: translate(18px, 25px);"><g><circle r="3" cx="-6" cy="-5" style="fill: #B6509E" /><text>Borrow APR, variable</text></g><g style="transform: translateX(150px);"><circle r="3" cx="-6" cy="-5" style="fill: rgb(231, 198, 223)" /><text>Borrow APR, stable</text></g><g style="transform: translateX(290px);"><circle r="3" cx="-6" cy="-5" style="fill: rgb(0, 98, 210)" /><text>Utilization Rate</text></g></g><g class="visx-group" transform="translate(40, 50)"><g class="visx-group visx-rows" transform="translate(0, 0)"><line class="visx-line" x1="0" y1="57.5" x2="1450" y2="57.5" fill="transparent" shape-rendering="crispEdges" stroke="#000" stroke-width="1" stroke-dasharray="3,3" pointer-events="none"></line></g><path class="visx-linepath" d="M0,0C2.4166666666666665,0,4.833333333333334,0,7.25,0C9.666666666666666,0,12.083333333333334,0,14.5,0C16.916666666666668,0,19.333333333333332,0,21.75,0C24.166666666666668,0,26.583333333333332,0,29,0C31.416666666666668,0,33.833333333333336,0,36.25,0C38.666666666666664,0,41.083333333333336,0,43.5,0C45.91666666666667,0,48.333333333333336,0,50.75000000000001,0C53.16666666666667,0,55.583333333333336,0,58,0C60.416666666666664,0,62.833333333333336,0,65.25,0C67.66666666666667,0,70.08333333333333,0,72.5,0C74.91666666666667,0,77.33333333333333,0,79.75,0C82.16666666666667,0,84.58333333333333,0,87,0C89.41666666666667,0,91.83333333333333,0,94.25,0C96.66666666666667,0,99.08333333333334,0,101.50000000000001,0C103.91666666666667,0,106.33333333333334,0,108.75,0C111.16666666666667,0,113.58333333333333,0,116,0C118.41666666666667,0,120.83333333333334,0,123.25000000000001,0C125.66666666666667,0,128.08333333333334,0,130.5,0C132.91666666666666,0,135.33333333333334,0,137.75,0C140.16666666666666,0,142.58333333333334,0,145,0C147.41666666666666,0,149.83333333333334,0,152.25,0C154.66666666666666,0,157.08333333333334,0,159.5,0C161.91666666666666,0,164.33333333333334,0,166.75,0C169.16666666666666,0,171.58333333333334,0,174,0C176.41666666666666,0,178.83333333333334,0,181.25,0C183.66666666666666,0,186.08333333333334,0,188.5,0C190.91666666666666,0,193.33333333333334,0,195.75,0C198.16666666666669,0,200.58333333333334,0,203.00000000000003,0C205.41666666666669,0,207.83333333333331,0,210.24999999999997,0C212.66666666666666,0,215.08333333333331,0,217.5,0C219.91666666666666,0,222.33333333333334,0,224.75,0C227.16666666666666,0,229.58333333333334,0,232,0C234.41666666666666,0,236.83333333333334,0,239.25,0C241.66666666666669,0,244.08333333333334,0,246.50000000000003,0C248.91666666666669,0,251.33333333333331,0,253.74999999999997,0C256.16666666666663,0,258.5833333333333,0,261,0C263.4166666666667,0,265.8333333333333,0,268.25,0C270.6666666666667,0,273.0833333333333,0,275.5,0C277.9166666666667,0,280.3333333333333,0,282.75,0C285.1666666666667,0,287.5833333333333,0,290,0C292.4166666666667,0,294.8333333333333,0,297.25,0C299.6666666666667,0,302.0833333333333,0,304.5,0C306.9166666666667,0,309.3333333333333,0,311.75,0C314.1666666666667,0,316.5833333333333,0,319,0C321.4166666666667,0,323.8333333333333,0,326.25,0C328.6666666666667,0,331.0833333333333,0,333.5,0C335.9166666666667,0,338.3333333333333,0,340.75,0C343.1666666666667,0,345.5833333333333,0,348,0C350.4166666666667,0,352.8333333333333,0,355.25,0C357.6666666666667,0,360.0833333333333,0,362.5,0C364.9166666666667,0,367.3333333333333,0,369.75,0C372.1666666666667,0,374.5833333333333,0,377,0C379.4166666666667,0,381.8333333333333,0,384.25,0C386.6666666666667,0,389.0833333333333,0,391.5,0C393.9166666666667,0,396.33333333333337,0,398.75000000000006,0C401.16666666666674,0,403.58333333333337,0,406.00000000000006,0C408.4166666666667,0,410.8333333333333,0,413.24999999999994,0C415.66666666666663,0,418.08333333333326,0,420.49999999999994,0C422.91666666666663,0,425.3333333333333,0,427.75,0C430.1666666666667,0,432.5833333333333,0,435,0C437.4166666666667,0,439.8333333333333,0,442.25,0C444.6666666666667,0,447.0833333333333,0,449.5,0C451.9166666666667,0,454.3333333333333,0,456.75,0C459.1666666666667,0,461.5833333333333,0,464,0C466.4166666666667,0,468.8333333333333,0,471.25,0C473.6666666666667,0,476.0833333333333,0,478.5,0C480.9166666666667,0,483.33333333333337,0,485.75000000000006,0C488.16666666666674,0,490.58333333333337,0,493.00000000000006,0C495.4166666666667,0,497.8333333333333,0,500.24999999999994,0C502.66666666666663,0,505.08333333333326,0,507.49999999999994,0C509.91666666666663,0,512.3333333333333,0,514.75,0C517.1666666666666,0,519.5833333333334,0,522,0C524.4166666666666,0,526.8333333333334,0,529.25,0C531.6666666666666,0,534.0833333333334,0,536.5,0C538.9166666666666,0,541.3333333333334,0,543.75,0C546.1666666666666,0,548.5833333333334,0,551,0C553.4166666666666,0,555.8333333333334,0,558.25,0C560.6666666666666,0,563.0833333333334,0,565.5,0C567.9166666666666,0,570.3333333333334,0,572.75,0C575.1666666666666,0,577.5833333333334,0,580,0C582.4166666666666,0,584.8333333333334,0,587.25,0C589.6666666666666,0,592.0833333333334,0,594.5,0C596.9166666666666,0,599.3333333333334,0,601.75,0C604.1666666666666,0,606.5833333333334,0,609,0C611.4166666666666,0,613.8333333333334,0,616.25,0C618.6666666666666,0,621.0833333333334,0,623.5,0C625.9166666666666,0,628.3333333333334,0,630.75,0C633.1666666666666,0,635.5833333333334,0,638,0C640.4166666666666,0,642.8333333333334,0,645.25,0C647.6666666666666,0,650.0833333333334,0,652.5,0C654.9166666666666,0,657.3333333333334,0,659.75,0C662.1666666666666,0,664.5833333333334,0,667,0C669.4166666666666,0,671.8333333333334,0,674.25,0C676.6666666666666,0,679.0833333333334,0,681.5,0C683.9166666666666,0,686.3333333333334,0,688.75,0C691.1666666666666,0,693.5833333333334,0,696,0C698.4166666666666,0,700.8333333333334,0,703.25,0C705.6666666666666,0,708.0833333333334,0,710.5,0C712.9166666666666,0,715.3333333333334,0,717.75,0C720.1666666666666,0,722.5833333333334,0,725,0C727.4166666666666,0,729.8333333333334,0,732.25,0C734.6666666666666,0,737.0833333333334,0,739.5,0C741.9166666666666,0,744.3333333333334,0,746.75,0C749.1666666666666,0,751.5833333333334,0,754,0C756.4166666666666,0,758.8333333333334,0,761.25,0C763.6666666666666,0,766.0833333333334,0,768.5,0C770.9166666666666,0,773.3333333333334,0,775.75,0C778.1666666666666,0,780.5833333333334,0,783,0C785.4166666666667,0,787.8333333333334,0,790.2500000000001,0C792.6666666666667,0,795.0833333333335,0,797.5000000000001,0C799.9166666666667,0,802.3333333333335,0,804.7500000000001,0C807.1666666666667,0,809.5833333333335,0,812.0000000000001,0C814.4166666666667,0,816.8333333333333,0,819.2499999999999,0C821.6666666666665,0,824.0833333333333,0,826.4999999999999,0C828.9166666666665,0,831.3333333333333,0,833.7499999999999,0C836.1666666666665,0,838.5833333333333,0,840.9999999999999,0C843.4166666666666,0,845.8333333333333,0,848.25,0C850.6666666666666,0,853.0833333333334,0,855.5,0C857.9166666666666,0,860.3333333333334,0,862.75,0C865.1666666666666,0,867.5833333333334,0,870,0C872.4166666666666,0,874.8333333333334,0,877.25,0C879.6666666666666,0,882.0833333333334,0,884.5,0C886.9166666666666,0,889.3333333333334,0,891.75,0C894.1666666666666,0,896.5833333333334,0,899,0C901.4166666666666,0,903.8333333333334,0,906.25,0C908.6666666666666,0,911.0833333333334,0,913.5,0C915.9166666666666,0,918.3333333333334,0,920.75,0C923.1666666666666,0,925.5833333333334,0,928,0C930.4166666666666,0,932.8333333333334,0,935.25,0C937.6666666666666,0,940.0833333333334,0,942.5,0C944.9166666666666,0,947.3333333333334,0,949.75,0C952.1666666666666,0,954.5833333333334,0,957,0C959.4166666666666,0,961.8333333333334,0,964.25,0C966.6666666666667,0,969.0833333333334,0,971.5000000000001,0C973.9166666666667,0,976.3333333333335,0,978.7500000000001,0C981.1666666666667,0,983.5833333333335,0,986.0000000000001,0C988.4166666666667,0,990.8333333333335,0,993.2500000000001,0C995.6666666666667,0,998.0833333333333,0,1000.4999999999999,0C1002.9166666666665,0,1005.3333333333333,0,1007.7499999999999,0C1010.1666666666665,0,1012.5833333333333,0,1014.9999999999999,0C1017.4166666666665,0,1019.8333333333333,0,1022.2499999999999,0C1024.6666666666665,0,1027.0833333333333,0,1029.5,0C1031.9166666666667,0,1034.3333333333333,0,1036.75,0C1039.1666666666667,0,1041.5833333333333,0,1044,0C1046.4166666666667,0,1048.8333333333333,0,1051.25,0C1053.6666666666667,0,1056.0833333333333,0,1058.5,0C1060.9166666666667,0,1063.3333333333333,0,1065.75,0C1068.1666666666667,0,1070.5833333333333,0,1073,0C1075.4166666666667,0,1077.8333333333333,0,1080.25,0C1082.6666666666667,0,1085.0833333333333,0,1087.5,0C1089.9166666666667,0,1092.3333333333333,0,1094.75,0C1097.1666666666667,0,1099.5833333333333,0,1102,0C1104.4166666666667,0,1106.8333333333333,0,1109.25,0C1111.6666666666667,0,1114.0833333333333,0,1116.5,0C1118.9166666666667,0,1121.3333333333333,0,1123.75,0C1126.1666666666667,0,1128.5833333333333,0,1131,0C1133.4166666666667,0,1135.8333333333333,0,1138.25,0C1140.6666666666667,0,1143.0833333333333,0,1145.5,0C1147.9166666666667,0,1150.3333333333333,0,1152.75,0C1155.1666666666667,0,1157.5833333333333,0,1160,0C1162.4166666666667,0,1164.8333333333333,0,1167.25,0C1169.6666666666667,0,1172.0833333333333,0,1174.5,0C1176.9166666666667,0,1179.3333333333333,0,1181.75,0C1184.1666666666667,0,1186.5833333333333,0,1189,0C1191.4166666666667,0,1193.8333333333333,0,1196.25,0C1198.6666666666667,0,1201.0833333333333,0,1203.5,0C1205.9166666666667,0,1208.3333333333333,0,1210.75,0C1213.1666666666667,0,1215.5833333333333,0,1218,0C1220.4166666666667,0,1222.8333333333333,0,1225.25,0C1227.6666666666667,0,1230.0833333333333,0,1232.5,0C1234.9166666666667,0,1237.3333333333333,0,1239.75,0C1242.1666666666667,0,1244.5833333333333,0,1247,0C1249.4166666666667,0,1251.8333333333333,0,1254.25,0C1256.6666666666667,0,1259.0833333333333,0,1261.5,0C1263.9166666666667,0,1266.3333333333333,0,1268.75,0C1271.1666666666667,0,1273.5833333333333,0,1276,0C1278.4166666666667,0,1280.8333333333333,0,1283.25,0C1285.6666666666667,0,1288.0833333333333,0,1290.5,0C1292.9166666666667,0,1295.3333333333333,0,1297.75,0C1300.1666666666667,0,1302.5833333333333,0,1305,0C1307.4166666666667,0,1309.8333333333333,0,1312.25,0C1314.6666666666667,0,1317.0833333333333,0,1319.5,0C1321.9166666666667,0,1324.3333333333333,0,1326.75,0C1329.1666666666667,0,1331.5833333333333,0,1334,0C1336.4166666666667,0,1338.8333333333333,0,1341.25,0C1343.6666666666667,0,1346.0833333333333,0,1348.5,0C1350.9166666666667,0,1353.3333333333333,0,1355.75,0C1358.1666666666667,0,1360.5833333333333,0,1363,0C1365.4166666666667,0,1367.8333333333333,0,1370.25,0C1372.6666666666667,0,1375.0833333333333,0,1377.5,0C1379.9166666666667,0,1382.3333333333333,0,1384.75,0C1387.1666666666667,0,1389.5833333333333,0,1392,0C1394.4166666666667,0,1396.8333333333333,0,1399.25,0C1401.6666666666667,0,1404.0833333333333,0,1406.5,0C1408.9166666666667,0,1411.3333333333333,0,1413.75,0C1416.1666666666667,0,1418.5833333333333,0,1421,0C1423.4166666666667,0,1425.8333333333333,0,1428.25,0C1430.6666666666667,0,1433.0833333333333,0,1435.5,0C1437.9166666666667,0,1440.3333333333333,0,1442.75,0C1445.1666666666667,0,1447.5833333333333,0,1450,0" fill="transparent" stroke-linecap="round" stroke="#B6509E" stroke-width="2"></path><path class="visx-linepath" d="M0,0C2.4166666666666665,0,4.833333333333334,0,7.25,0C9.666666666666666,0,12.083333333333334,0,14.5,0C16.916666666666668,0,19.333333333333332,0,21.75,0C24.166666666666668,0,26.583333333333332,0,29,0C31.416666666666668,0,33.833333333333336,0,36.25,0C38.666666666666664,0,41.083333333333336,0,43.5,0C45.91666666666667,0,48.333333333333336,0,50.75000000000001,0C53.16666666666667,0,55.583333333333336,0,58,0C60.416666666666664,0,62.833333333333336,0,65.25,0C67.66666666666667,0,70.08333333333333,0,72.5,0C74.91666666666667,0,77.33333333333333,0,79.75,0C82.16666666666667,0,84.58333333333333,0,87,0C89.41666666666667,0,91.83333333333333,0,94.25,0C96.66666666666667,0,99.08333333333334,0,101.50000000000001,0C103.91666666666667,0,106.33333333333334,0,108.75,0C111.16666666666667,0,113.58333333333333,0,116,0C118.41666666666667,0,120.83333333333334,0,123.25000000000001,0C125.66666666666667,0,128.08333333333334,0,130.5,0C132.91666666666666,0,135.33333333333334,0,137.75,0C140.16666666666666,0,142.58333333333334,0,145,0C147.41666666666666,0,149.83333333333334,0,152.25,0C154.66666666666666,0,157.08333333333334,0,159.5,0C161.91666666666666,0,164.33333333333334,0,166.75,0C169.16666666666666,0,171.58333333333334,0,174,0C176.41666666666666,0,178.83333333333334,0,181.25,0C183.66666666666666,0,186.08333333333334,0,188.5,0C190.91666666666666,0,193.33333333333334,0,195.75,0C198.16666666666669,0,200.58333333333334,0,203.00000000000003,0C205.41666666666669,0,207.83333333333331,0,210.24999999999997,0C212.66666666666666,0,215.08333333333331,0,217.5,0C219.91666666666666,0,222.33333333333334,0,224.75,0C227.16666666666666,0,229.58333333333334,0,232,0C234.41666666666666,0,236.83333333333334,0,239.25,0C241.66666666666669,0,244.08333333333334,0,246.50000000000003,0C248.91666666666669,0,251.33333333333331,0,253.74999999999997,0C256.16666666666663,0,258.5833333333333,0,261,0C263.4166666666667,0,265.8333333333333,0,268.25,0C270.6666666666667,0,273.0833333333333,0,275.5,0C277.9166666666667,0,280.3333333333333,0,282.75,0C285.1666666666667,0,287.5833333333333,0,290,0C292.4166666666667,0,294.8333333333333,0,297.25,0C299.6666666666667,0,302.0833333333333,0,304.5,0C306.9166666666667,0,309.3333333333333,0,311.75,0C314.1666666666667,0,316.5833333333333,0,319,0C321.4166666666667,0,323.8333333333333,0,326.25,0C328.6666666666667,0,331.0833333333333,0,333.5,0C335.9166666666667,0,338.3333333333333,0,340.75,0C343.1666666666667,0,345.5833333333333,0,348,0C350.4166666666667,0,352.8333333333333,0,355.25,0C357.6666666666667,0,360.0833333333333,0,362.5,0C364.9166666666667,0,367.3333333333333,0,369.75,0C372.1666666666667,0,374.5833333333333,0,377,0C379.4166666666667,0,381.8333333333333,0,384.25,0C386.6666666666667,0,389.0833333333333,0,391.5,0C393.9166666666667,0,396.33333333333337,0,398.75000000000006,0C401.16666666666674,0,403.58333333333337,0,406.00000000000006,0C408.4166666666667,0,410.8333333333333,0,413.24999999999994,0C415.66666666666663,0,418.08333333333326,0,420.49999999999994,0C422.91666666666663,0,425.3333333333333,0,427.75,0C430.1666666666667,0,432.5833333333333,0,435,0C437.4166666666667,0,439.8333333333333,0,442.25,0C444.6666666666667,0,447.0833333333333,0,449.5,0C451.9166666666667,0,454.3333333333333,0,456.75,0C459.1666666666667,0,461.5833333333333,0,464,0C466.4166666666667,0,468.8333333333333,0,471.25,0C473.6666666666667,0,476.0833333333333,0,478.5,0C480.9166666666667,0,483.33333333333337,0,485.75000000000006,0C488.16666666666674,0,490.58333333333337,0,493.00000000000006,0C495.4166666666667,0,497.8333333333333,0,500.24999999999994,0C502.66666666666663,0,505.08333333333326,0,507.49999999999994,0C509.91666666666663,0,512.3333333333333,0,514.75,0C517.1666666666666,0,519.5833333333334,0,522,0C524.4166666666666,0,526.8333333333334,0,529.25,0C531.6666666666666,0,534.0833333333334,0,536.5,0C538.9166666666666,0,541.3333333333334,0,543.75,0C546.1666666666666,0,548.5833333333334,0,551,0C553.4166666666666,0,555.8333333333334,0,558.25,0C560.6666666666666,0,563.0833333333334,0,565.5,0C567.9166666666666,0,570.3333333333334,0,572.75,0C575.1666666666666,0,577.5833333333334,0,580,0C582.4166666666666,0,584.8333333333334,0,587.25,0C589.6666666666666,0,592.0833333333334,0,594.5,0C596.9166666666666,0,599.3333333333334,0,601.75,0C604.1666666666666,0,606.5833333333334,0,609,0C611.4166666666666,0,613.8333333333334,0,616.25,0C618.6666666666666,0,621.0833333333334,0,623.5,0C625.9166666666666,0,628.3333333333334,0,630.75,0C633.1666666666666,0,635.5833333333334,0,638,0C640.4166666666666,0,642.8333333333334,0,645.25,0C647.6666666666666,0,650.0833333333334,0,652.5,0C654.9166666666666,0,657.3333333333334,0,659.75,0C662.1666666666666,0,664.5833333333334,0,667,0C669.4166666666666,0,671.8333333333334,0,674.25,0C676.6666666666666,0,679.0833333333334,0,681.5,0C683.9166666666666,0,686.3333333333334,0,688.75,0C691.1666666666666,0,693.5833333333334,0,696,0C698.4166666666666,0,700.8333333333334,0,703.25,0C705.6666666666666,0,708.0833333333334,0,710.5,0C712.9166666666666,0,715.3333333333334,0,717.75,0C720.1666666666666,0,722.5833333333334,0,725,0C727.4166666666666,0,729.8333333333334,0,732.25,0C734.6666666666666,0,737.0833333333334,0,739.5,0C741.9166666666666,0,744.3333333333334,0,746.75,0C749.1666666666666,0,751.5833333333334,0,754,0C756.4166666666666,0,758.8333333333334,0,761.25,0C763.6666666666666,0,766.0833333333334,0,768.5,0C770.9166666666666,0,773.3333333333334,0,775.75,0C778.1666666666666,0,780.5833333333334,0,783,0C785.4166666666667,0,787.8333333333334,0,790.2500000000001,0C792.6666666666667,0,795.0833333333335,0,797.5000000000001,0C799.9166666666667,0,802.3333333333335,0,804.7500000000001,0C807.1666666666667,0,809.5833333333335,0,812.0000000000001,0C814.4166666666667,0,816.8333333333333,0,819.2499999999999,0C821.6666666666665,0,824.0833333333333,0,826.4999999999999,0C828.9166666666665,0,831.3333333333333,0,833.7499999999999,0C836.1666666666665,0,838.5833333333333,0,840.9999999999999,0C843.4166666666666,0,845.8333333333333,0,848.25,0C850.6666666666666,0,853.0833333333334,0,855.5,0C857.9166666666666,0,860.3333333333334,0,862.75,0C865.1666666666666,0,867.5833333333334,0,870,0C872.4166666666666,0,874.8333333333334,0,877.25,0C879.6666666666666,0,882.0833333333334,0,884.5,0C886.9166666666666,0,889.3333333333334,0,891.75,0C894.1666666666666,0,896.5833333333334,0,899,0C901.4166666666666,0,903.8333333333334,0,906.25,0C908.6666666666666,0,911.0833333333334,0,913.5,0C915.9166666666666,0,918.3333333333334,0,920.75,0C923.1666666666666,0,925.5833333333334,0,928,0C930.4166666666666,0,932.8333333333334,0,935.25,0C937.6666666666666,0,940.0833333333334,0,942.5,0C944.9166666666666,0,947.3333333333334,0,949.75,0C952.1666666666666,0,954.5833333333334,0,957,0C959.4166666666666,0,961.8333333333334,0,964.25,0C966.6666666666667,0,969.0833333333334,0,971.5000000000001,0C973.9166666666667,0,976.3333333333335,0,978.7500000000001,0C981.1666666666667,0,983.5833333333335,0,986.0000000000001,0C988.4166666666667,0,990.8333333333335,0,993.2500000000001,0C995.6666666666667,0,998.0833333333333,0,1000.4999999999999,0C1002.9166666666665,0,1005.3333333333333,0,1007.7499999999999,0C1010.1666666666665,0,1012.5833333333333,0,1014.9999999999999,0C1017.4166666666665,0,1019.8333333333333,0,1022.2499999999999,0C1024.6666666666665,0,1027.0833333333333,0,1029.5,0C1031.9166666666667,0,1034.3333333333333,0,1036.75,0C1039.1666666666667,0,1041.5833333333333,0,1044,0C1046.4166666666667,0,1048.8333333333333,0,1051.25,0C1053.6666666666667,0,1056.0833333333333,0,1058.5,0C1060.9166666666667,0,1063.3333333333333,0,1065.75,0C1068.1666666666667,0,1070.5833333333333,0,1073,0C1075.4166666666667,0,1077.8333333333333,0,1080.25,0C1082.6666666666667,0,1085.0833333333333,0,1087.5,0C1089.9166666666667,0,1092.3333333333333,0,1094.75,0C1097.1666666666667,0,1099.5833333333333,0,1102,0C1104.4166666666667,0,1106.8333333333333,0,1109.25,0C1111.6666666666667,0,1114.0833333333333,0,1116.5,0C1118.9166666666667,0,1121.3333333333333,0,1123.75,0C1126.1666666666667,0,1128.5833333333333,0,1131,0C1133.4166666666667,0,1135.8333333333333,0,1138.25,0C1140.6666666666667,0,1143.0833333333333,0,1145.5,0C1147.9166666666667,0,1150.3333333333333,0,1152.75,0C1155.1666666666667,0,1157.5833333333333,0,1160,0C1162.4166666666667,0,1164.8333333333333,0,1167.25,0C1169.6666666666667,0,1172.0833333333333,0,1174.5,0C1176.9166666666667,0,1179.3333333333333,0,1181.75,0C1184.1666666666667,0,1186.5833333333333,0,1189,0C1191.4166666666667,0,1193.8333333333333,0,1196.25,0C1198.6666666666667,0,1201.0833333333333,0,1203.5,0C1205.9166666666667,0,1208.3333333333333,0,1210.75,0C1213.1666666666667,0,1215.5833333333333,0,1218,0C1220.4166666666667,0,1222.8333333333333,0,1225.25,0C1227.6666666666667,0,1230.0833333333333,0,1232.5,0C1234.9166666666667,0,1237.3333333333333,0,1239.75,0C1242.1666666666667,0,1244.5833333333333,0,1247,0C1249.4166666666667,0,1251.8333333333333,0,1254.25,0C1256.6666666666667,0,1259.0833333333333,0,1261.5,0C1263.9166666666667,0,1266.3333333333333,0,1268.75,0C1271.1666666666667,0,1273.5833333333333,0,1276,0C1278.4166666666667,0,1280.8333333333333,0,1283.25,0C1285.6666666666667,0,1288.0833333333333,0,1290.5,0C1292.9166666666667,0,1295.3333333333333,0,1297.75,0C1300.1666666666667,0,1302.5833333333333,0,1305,0C1307.4166666666667,0,1309.8333333333333,0,1312.25,0C1314.6666666666667,0,1317.0833333333333,0,1319.5,0C1321.9166666666667,0,1324.3333333333333,0,1326.75,0C1329.1666666666667,0,1331.5833333333333,0,1334,0C1336.4166666666667,0,1338.8333333333333,0,1341.25,0C1343.6666666666667,0,1346.0833333333333,0,1348.5,0C1350.9166666666667,0,1353.3333333333333,0,1355.75,0C1358.1666666666667,0,1360.5833333333333,0,1363,0C1365.4166666666667,0,1367.8333333333333,0,1370.25,0C1372.6666666666667,0,1375.0833333333333,0,1377.5,0C1379.9166666666667,0,1382.3333333333333,0,1384.75,0C1387.1666666666667,0,1389.5833333333333,0,1392,0C1394.4166666666667,0,1396.8333333333333,0,1399.25,0C1401.6666666666667,0,1404.0833333333333,0,1406.5,0C1408.9166666666667,0,1411.3333333333333,0,1413.75,0C1416.1666666666667,0,1418.5833333333333,0,1421,0C1423.4166666666667,0,1425.8333333333333,0,1428.25,0C1430.6666666666667,0,1433.0833333333333,0,1435.5,0C1437.9166666666667,0,1440.3333333333333,0,1442.75,0C1445.1666666666667,0,1447.5833333333333,0,1450,0" fill="transparent" stroke-linecap="round" stroke="#E7C6DF" stroke-width="2"></path><g class="visx-group visx-axis visx-axis-bottom" transform="translate(0, 115)"><g class="visx-group visx-axis-tick" transform="translate(0, 0)"><line class="visx-line" x1="0" y1="0" x2="0" y2="8" fill="transparent" shape-rendering="crispEdges" stroke="#000" stroke-width="0" stroke-linecap="square"></line><svg x="0" y="0" font-size="10" style="overflow:visible"><text transform="" x="0" y="18" fill="#000" font-size="10" text-anchor="middle"><tspan x="0" dy="0em">0%</tspan></text></svg></g><g class="visx-group visx-axis-tick" transform="translate(0, 0)"><line class="visx-line" x1="362.5" y1="0" x2="362.5" y2="8" fill="transparent" shape-rendering="crispEdges" stroke="#000" stroke-width="0" stroke-linecap="square"></line><svg x="0" y="0" font-size="10" style="overflow:visible"><text transform="" x="362.5" y="18" fill="#000" font-size="10" text-anchor="middle"><tspan x="362.5" dy="0em">25%</tspan></text></svg></g><g class="visx-group visx-axis-tick" transform="translate(0, 0)"><line class="visx-line" x1="725" y1="0" x2="725" y2="8" fill="transparent" shape-rendering="crispEdges" stroke="#000" stroke-width="0" stroke-linecap="square"></line><svg x="0" y="0" font-size="10" style="overflow:visible"><text transform="" x="725" y="18" fill="#000" font-size="10" text-anchor="middle"><tspan x="725" dy="0em">50%</tspan></text></svg></g><g class="visx-group visx-axis-tick" transform="translate(0, 0)"><line class="visx-line" x1="1087.5" y1="0" x2="1087.5" y2="8" fill="transparent" shape-rendering="crispEdges" stroke="#000" stroke-width="0" stroke-linecap="square"></line><svg x="0" y="0" font-size="10" style="overflow:visible"><text transform="" x="1087.5" y="18" fill="#000" font-size="10" text-anchor="middle"><tspan x="1087.5" dy="0em">75%</tspan></text></svg></g><g class="visx-group visx-axis-tick" transform="translate(0, 0)"><line class="visx-line" x1="1450" y1="0" x2="1450" y2="8" fill="transparent" shape-rendering="crispEdges" stroke="#000" stroke-width="0" stroke-linecap="square"></line><svg x="0" y="0" font-size="10" style="overflow:visible"><text transform="" x="1450" y="18" fill="#000" font-size="10" text-anchor="middle"><tspan x="1450" dy="0em">100%</tspan></text></svg></g><line class="visx-line visx-axis-line" x1="0.5" y1="0" x2="1450.5" y2="0" fill="transparent" shape-rendering="crispEdges" stroke="#222" stroke-width="0"></line></g><g class="visx-group visx-axis visx-axis-left" transform="translate(0, 0)"><g class="visx-group visx-axis-tick" transform="translate(0, 0)"><line class="visx-line" x1="0" y1="57.5" x2="-8" y2="57.5" fill="transparent" shape-rendering="crispEdges" stroke="#222" stroke-width="0" stroke-linecap="square"></line><svg x="-30" y="0" font-size="8" style="overflow:visible"><text transform="" x="-8" y="57.5" fill="#000" font-size="8" text-anchor="start"><tspan x="-8" dy="0em">0%</tspan></text></svg></g><line class="visx-line visx-axis-line" x1="0" y1="115.5" x2="0" y2="0.5" fill="transparent" shape-rendering="crispEdges" stroke="#222" stroke-width="0"></line></g><rect class="visx-bar" width="1450" height="115" fill="transparent"></rect><line class="visx-line" y1="28" y2="115" fill="transparent" shape-rendering="crispEdges" stroke="#0062D2" stroke-width="1" pointer-events="none" stroke-dasharray="5,2"></line><svg x="0" y="0" font-size="10px" style="overflow:visible"><text transform="" y="20" font-size="10px" fill="#fff" stroke="#fff" stroke-width="0.8em" text-anchor="middle"><tspan x="0" dy="0.355em">Optimal NaN%</tspan></text></svg><svg x="0" y="0" font-size="10px" style="overflow:visible"><text transform="" y="20" font-size="10px" fill="#62677B" text-anchor="middle"><tspan x="0" dy="0.355em">Optimal NaN%</tspan></text></svg></g></svg>